<?xml version="1.0" encoding="utf-8"?>
<!-- Generator: Adobe Illustrator 16.0.0, SVG Export Plug-In . SVG Version: 6.00 Build 0)  -->
<!DOCTYPE svg PUBLIC "-//W3C//DTD SVG 1.1//EN" "http://www.w3.org/Graphics/SVG/1.1/DTD/svg11.dtd">
<svg version="1.1" id="Layer_1" xmlns="http://www.w3.org/2000/svg" xmlns:xlink="http://www.w3.org/1999/xlink" x="0px" y="0px"
	 width="512px" height="512px" viewBox="0 0 512 512" style="enable-background:new 0 0 512 512;" xml:space="preserve">
<g>
	<defs>
		<rect id="SVGID_1_" width="512" height="512"/>
	</defs>
	<use xlink:href="#SVGID_1_"  style="overflow:visible;fill:#FFFFFF;"/>
	<clipPath id="SVGID_2_">
		<use xlink:href="#SVGID_1_"  style="overflow:visible;"/>
	</clipPath>
	<path style="clip-path:url(#SVGID_2_);fill:#FFFFFF;" d="M0,256L0,256c0,141.385,114.615,256,256,256s256-114.615,256-256
		S397.385,0,256,0S0,114.615,0,256z"/>
</g>
<g>
	<defs>
		<rect id="SVGID_3_" width="512" height="512"/>
	</defs>
	<clipPath id="SVGID_4_">
		<use xlink:href="#SVGID_3_"  style="overflow:visible;"/>
	</clipPath>
	<path style="clip-path:url(#SVGID_4_);fill:#9D4784;" d="M306.66,122.49h-85.28c-63.104,0-114.26,51.156-114.26,114.26v26.38
		c-0.038,23.313,7.091,46.073,20.42,65.2l-27.13,85.41l76.27-45.42c14.133,6.005,29.334,9.09,44.69,9.069h85.27
		c30.306,0.003,59.371-12.034,80.801-33.462c21.43-21.429,33.47-50.492,33.47-80.798v-26.38
		C420.91,173.65,369.76,122.496,306.66,122.49z"/>
</g>
<g>
	<defs>
		<rect id="SVGID_5_" width="512" height="512"/>
	</defs>
	<clipPath id="SVGID_6_">
		<use xlink:href="#SVGID_5_"  style="overflow:visible;"/>
	</clipPath>
	<circle style="clip-path:url(#SVGID_6_);fill:#FFFFFF;" cx="192.43" cy="248.76" r="28.91"/>
</g>
<g>
	<defs>
		<rect id="SVGID_7_" width="512" height="512"/>
	</defs>
	<clipPath id="SVGID_8_">
		<use xlink:href="#SVGID_7_"  style="overflow:visible;"/>
	</clipPath>
	<circle style="clip-path:url(#SVGID_8_);fill:#FFFFFF;" cx="272.43" cy="248.76" r="28.91"/>
</g>
<g>
	<defs>
		<rect id="SVGID_9_" width="512" height="512"/>
	</defs>
	<clipPath id="SVGID_10_">
		<use xlink:href="#SVGID_9_"  style="overflow:visible;"/>
	</clipPath>
	<circle style="clip-path:url(#SVGID_10_);fill:#FFFFFF;" cx="350.43" cy="248.76" r="28.91"/>
</g>
</svg>
