<?xml version="1.0" encoding="utf-8"?>
<!-- Generator: Adobe Illustrator 16.0.0, SVG Export Plug-In . SVG Version: 6.00 Build 0)  -->
<!DOCTYPE svg PUBLIC "-//W3C//DTD SVG 1.1//EN" "http://www.w3.org/Graphics/SVG/1.1/DTD/svg11.dtd">
<svg xmlns="http://www.w3.org/2000/svg" width="24.637" height="23.805" viewBox="0 0 24.637 23.805">
  <g id="Group_1207" data-name="Group 1207" transform="translate(8808 18779.999)">
    <g id="chatting" transform="translate(-8808 -18780)">
      <path id="Path_8946" data-name="Path 8946" d="M12.318,40.806C5.515,40.806,0,45.186,0,50.589c0,3.858,2.812,7.194,6.9,8.787a6.1,6.1,0,0,1-1.69,5.235,6.027,6.027,0,0,0,5.755-4.3q.668.058,1.357.059c6.8,0,12.318-4.38,12.318-9.783S19.121,40.806,12.318,40.806Z" transform="translate(0 -40.806)" fill="#4b74b5"/>
    </g>
    <g id="Group_1206" data-name="Group 1206" transform="translate(-8801.01 -18773.539)">
      <path id="Path_8309" data-name="Path 8309" d="M135.23,160h-9.318a.629.629,0,0,0,0,1.258h9.318a.629.629,0,0,0,0-1.258Z" transform="translate(-125.283 -160)" fill="#fff"/>
      <path id="Path_8310" data-name="Path 8310" d="M135.23,225.3h-9.318a.629.629,0,0,0,0,1.258h9.318a.629.629,0,0,0,0-1.258Z" transform="translate(-125.283 -222.257)" fill="#fff"/>
      <path id="Path_8311" data-name="Path 8311" d="M135.23,290.6h-9.318a.629.629,0,0,0,0,1.258h9.318a.629.629,0,0,0,0-1.258Z" transform="translate(-125.283 -284.515)" fill="#fff"/>
    </g>
  </g>
</svg>

