<svg xmlns="http://www.w3.org/2000/svg" width="172.583" height="59.397" viewBox="0 0 172.583 59.397">
  <g id="Group_189" data-name="Group 189" transform="translate(-5848.86 -2003)">
    <g id="Group_179" data-name="Group 179" transform="translate(5848.86 2003)">
      <path id="Path_1" data-name="Path 1" d="M748.737,1052.3c-1.842,1.623-3.018,3.359-3.167,5.136l-.012-.087a16.728,16.728,0,0,0,3.156,9.2l1.917-3.321C749.013,1059.59,748.047,1055.494,748.737,1052.3Z" transform="translate(-744.46 -1017.551)" fill="#414141" fill-rule="evenodd"/>
      <path id="Path_2" data-name="Path 2" d="M810.145,1008.1a21.081,21.081,0,0,0,.963,8.363q.3.932.622,1.806l2.629-4.553a30.3,30.3,0,0,1-.879-7.719A30.448,30.448,0,0,0,810.145,1008.1Z" transform="translate(-804.469 -974.472)" fill="#414141" fill-rule="evenodd"/>
      <path id="Path_3" data-name="Path 3" d="M887,970.634c-.859.364-1.7.746-2.51,1.143.014.873.061,1.75.139,2.622a34.068,34.068,0,0,0,.48,3.405l3.04-5.265c-.061-.774-.1-1.556-.1-2.339Q887.512,970.416,887,970.634Z" transform="translate(-873.711 -941.172)" fill="#414141" fill-rule="evenodd"/>
      <path id="Path_4" data-name="Path 4" d="M910.706,563.921c-.719.053-1.474.128-2.243.227a6.343,6.343,0,1,0-6.844,1.561,9.485,9.485,0,0,0-3.412,1.947,13.914,13.914,0,0,0-3.139,5.182c2.5-3.411,10-5.417,16.774-6.1a7.585,7.585,0,0,1-1.136-2.817Z" transform="translate(-883.556 -553.435)" fill="#414141" fill-rule="evenodd"/>
      <path id="Path_5" data-name="Path 5" d="M847.742,604.213c-.627.02-1.281.045-1.953.074a6.341,6.341,0,1,0-8.269.629c-9.086,1.041-18.972,3.536-23.252,9.791a10.757,10.757,0,0,0-1.78,3.813c3.551-6.25,16.564-8.732,23.559-9.749,1.128-.164,7.623-.816,12.535-1.29a7.572,7.572,0,0,1-.839-3.267Z" transform="translate(-806.726 -590.684)" fill="#638fc9" fill-rule="evenodd"/>
      <path id="Path_6" data-name="Path 6" d="M782.707,664.79a6.341,6.341,0,1,0-8.661.087,141.615,141.615,0,0,0-16.718,1.9,68.38,68.38,0,0,0-15.061,4.339c-4.615,2.064-8.653,4.875-10.727,7.951a9.1,9.1,0,0,0-1.668,6.55c.33-3.935,5.7-7.676,12.174-10.419,13.329-5.649,36.408-7.067,50.364-6.8l-5.635-3.2A31.844,31.844,0,0,0,782.707,664.79Z" transform="translate(-729.778 -646.862)" fill="#4b74b5" fill-rule="evenodd"/>
    </g>
    <path id="Path_53" data-name="Path 53" d="M-1.1,0l.215-1.171L.354-1.257a1.04,1.04,0,0,0,.628-.22,1.843,1.843,0,0,0,.381-.854L4.329-13.643a.453.453,0,0,0,.043-.14A1.624,1.624,0,0,0,4.383-14a.61.61,0,0,0-.209-.483,1,1,0,0,0-.585-.215L2.2-14.781l.258-1.106H8.379q2.342,0,3.443.1a7.688,7.688,0,0,1,1.778.338,3.777,3.777,0,0,1,1.8,1.289,3.229,3.229,0,0,1,.661,1.987,3.44,3.44,0,0,1-1.4,2.863A6.377,6.377,0,0,1,10.85-8.164v.129A5.708,5.708,0,0,1,14.088-6.9a3.148,3.148,0,0,1,1.133,2.541,3.9,3.9,0,0,1-.628,2.17A4.245,4.245,0,0,1,12.826-.677a6.755,6.755,0,0,1-2.02.521A31.043,31.043,0,0,1,7.219,0ZM6.51-7.477l-1.2,4.855q-.064.247-.1.478a2.551,2.551,0,0,0-.038.4.471.471,0,0,0,.306.473,5.333,5.333,0,0,0,1.542.129,4.429,4.429,0,0,0,3.1-.94,3.776,3.776,0,0,0,1.01-2.9A2.389,2.389,0,0,0,10.441-6.9,3.663,3.663,0,0,0,8.1-7.477ZM8-13.46,6.778-8.669H8.035a4.079,4.079,0,0,0,2.97-.967,3.963,3.963,0,0,0,.983-2.943,1.992,1.992,0,0,0-.6-1.606,2.909,2.909,0,0,0-1.9-.51,1.587,1.587,0,0,0-.988.231A2.059,2.059,0,0,0,8-13.46ZM25.145-9.679a1.655,1.655,0,0,0-1.171.5,5.266,5.266,0,0,0-1.031,1.633,13.746,13.746,0,0,0-.822,2.476,10.2,10.2,0,0,0-.328,2.25,2.406,2.406,0,0,0,.451,1.536,1.457,1.457,0,0,0,1.2.569,1.734,1.734,0,0,0,1.219-.526,4.747,4.747,0,0,0,1-1.579,14.964,14.964,0,0,0,.79-2.5,10.585,10.585,0,0,0,.306-2.256,2.448,2.448,0,0,0-.44-1.536A1.417,1.417,0,0,0,25.145-9.679ZM23.2.333A4.841,4.841,0,0,1,19.731-.9a4.279,4.279,0,0,1-1.3-3.26,5.705,5.705,0,0,1,.537-2.369,6.872,6.872,0,0,1,1.5-2.122,7.275,7.275,0,0,1,2.336-1.525,7.323,7.323,0,0,1,2.755-.516,4.557,4.557,0,0,1,3.314,1.225A4.3,4.3,0,0,1,30.14-6.23a6.152,6.152,0,0,1-2.068,4.6A6.838,6.838,0,0,1,23.2.333Zm17.6-1.987A5.669,5.669,0,0,1,39.06-.124a4.3,4.3,0,0,1-2.036.478,3.533,3.533,0,0,1-2.7-1.133,4.074,4.074,0,0,1-1.058-2.9,6.853,6.853,0,0,1,1.95-4.818,6.031,6.031,0,0,1,4.539-2.089,3.56,3.56,0,0,1,1.6.328,2.688,2.688,0,0,1,1.09,1.015l.333-1.106h3.448q-1.053,3.126-1.735,5.521A17.912,17.912,0,0,0,43.8-1.977a.469.469,0,0,0,.1.333.451.451,0,0,0,.338.107q.344,0,.892-.612a13.384,13.384,0,0,0,1.311-1.858l.763.58A9.213,9.213,0,0,1,45.032-.585a3.818,3.818,0,0,1-2.444,1,1.745,1.745,0,0,1-1.316-.483,1.883,1.883,0,0,1-.467-1.364ZM41.783-7.7a1.9,1.9,0,0,0-.365-1.246,1.253,1.253,0,0,0-1.021-.44,1.93,1.93,0,0,0-1.187.419,3.947,3.947,0,0,0-1.015,1.246,10.747,10.747,0,0,0-.935,2.369A9.038,9.038,0,0,0,36.9-3.019a2.319,2.319,0,0,0,.344,1.375,1.158,1.158,0,0,0,1,.473,1.856,1.856,0,0,0,1.187-.435A4.172,4.172,0,0,0,40.44-2.943a13.136,13.136,0,0,0,.961-2.5A8.821,8.821,0,0,0,41.783-7.7ZM50.514,0l2.2-7.466q.011-.043.032-.118a4.457,4.457,0,0,0,.2-.978.676.676,0,0,0-.215-.521.821.821,0,0,0-.58-.2h-1.1l.258-1.063,5.285-.172-.677,2.664a8.511,8.511,0,0,1,1.96-2.218,3.388,3.388,0,0,1,2.036-.736,2.024,2.024,0,0,1,1.472.521,1.891,1.891,0,0,1,.537,1.423,1.79,1.79,0,0,1-.478,1.273,1.573,1.573,0,0,1-1.2.51,1.581,1.581,0,0,1-1.085-.36,1.194,1.194,0,0,1-.408-.94v-.247a.613.613,0,0,0-.07-.349.315.315,0,0,0-.263-.091q-.7,0-2.036,2.2a20.227,20.227,0,0,0-2.165,5.258L53.812,0ZM71.7-1.676A5.061,5.061,0,0,1,70.009-.193a4.329,4.329,0,0,1-2.052.5,3.487,3.487,0,0,1-2.75-1.2,4.586,4.586,0,0,1-1.053-3.142,6.215,6.215,0,0,1,.532-2.53,6.861,6.861,0,0,1,1.563-2.2,6.556,6.556,0,0,1,2-1.359,5.633,5.633,0,0,1,2.24-.467,3.69,3.69,0,0,1,1.729.381A2.66,2.66,0,0,1,73.35-9.088L74.542-13.2q.1-.354.156-.666a2.869,2.869,0,0,0,.059-.516.594.594,0,0,0-.156-.462,1,1,0,0,0-.6-.161l-1.332-.043.279-1.031,5.79-.2-3.7,12.719-.032.107a6.748,6.748,0,0,0-.322,1.482.508.508,0,0,0,.107.328.331.331,0,0,0,.269.134,1.386,1.386,0,0,0,.892-.559,14.531,14.531,0,0,0,1.375-1.912l.72.559a11.025,11.025,0,0,1-2.24,2.836,3.491,3.491,0,0,1-2.24.945,1.811,1.811,0,0,1-1.4-.521A2.141,2.141,0,0,1,71.7-1.676ZM67.7-3a2.056,2.056,0,0,0,.4,1.343,1.341,1.341,0,0,0,1.1.483,1.725,1.725,0,0,0,1.133-.451A4.436,4.436,0,0,0,71.33-3a13.522,13.522,0,0,0,.967-2.46,8.039,8.039,0,0,0,.376-2.084,2.08,2.08,0,0,0-.392-1.337,1.3,1.3,0,0,0-1.069-.489,1.794,1.794,0,0,0-1.251.526A5.272,5.272,0,0,0,68.881-7.2a16.461,16.461,0,0,0-.859,2.353A7.332,7.332,0,0,0,67.7-3ZM82.307,0h-.924l1.1-6.252,1.063.183v.107a5.351,5.351,0,0,0,1.284,3.776A4.511,4.511,0,0,0,88.312-.795a4.2,4.2,0,0,0,2.567-.7,2.257,2.257,0,0,0,.935-1.912q0-1.665-3.341-2.771-.129-.043-.2-.075a8.746,8.746,0,0,1-3.658-2.03,4.262,4.262,0,0,1-1.047-2.986,4.574,4.574,0,0,1,1.627-3.588,6.125,6.125,0,0,1,4.195-1.429,7.045,7.045,0,0,1,2.481.414,6.743,6.743,0,0,1,2.095,1.284l1.128-1.16h.967l-.924,5.736-1.139-.15a5.765,5.765,0,0,0-1.2-3.76,4.157,4.157,0,0,0-3.271-1.257,3.107,3.107,0,0,0-2.122.709,2.3,2.3,0,0,0-.811,1.815q0,1.439,3.266,2.643.623.226.967.354a8.1,8.1,0,0,1,3.233,1.928,3.958,3.958,0,0,1,.859,2.648,4.959,4.959,0,0,1-1.772,3.969A6.928,6.928,0,0,1,88.494.4a7.447,7.447,0,0,1-2.739-.473,5.823,5.823,0,0,1-2.105-1.418ZM103.9-7.595a9.906,9.906,0,0,1,2.3-2.24,4.084,4.084,0,0,1,2.245-.747,2.478,2.478,0,0,1,1.783.6,2.26,2.26,0,0,1,.623,1.713,3.929,3.929,0,0,1-.1.79q-.1.478-.317,1.144l-1.321,4.071a2.067,2.067,0,0,0-.048.22,1.414,1.414,0,0,0-.016.22.392.392,0,0,0,.091.279.345.345,0,0,0,.263.1q.354,0,.924-.634a11.83,11.83,0,0,0,1.268-1.8l.773.569A9.815,9.815,0,0,1,110.18-.553a3.68,3.68,0,0,1-2.353.908,2.362,2.362,0,0,1-1.617-.5,1.815,1.815,0,0,1-.564-1.434,3.911,3.911,0,0,1,.091-.784,6.827,6.827,0,0,1,.242-.87l1.235-3.5q.172-.483.274-.875a2.586,2.586,0,0,0,.1-.553.592.592,0,0,0-.172-.446.651.651,0,0,0-.473-.167,2.192,2.192,0,0,0-1.246.591,7.291,7.291,0,0,0-1.418,1.568,10.917,10.917,0,0,0-1.047,1.939,25.426,25.426,0,0,0-.994,3.045L101.8,0H98.364l4.05-13.191q.129-.44.188-.73a2.447,2.447,0,0,0,.059-.462.554.554,0,0,0-.2-.462,1.033,1.033,0,0,0-.591-.183l-1.1-.021.279-1.031,5.5-.2Zm15.22,2.578a6.393,6.393,0,0,0,3.126-1.289,2.856,2.856,0,0,0,1.182-2.234,1.019,1.019,0,0,0-.317-.773,1.145,1.145,0,0,0-.822-.3,2.293,2.293,0,0,0-1.8,1.214A10.264,10.264,0,0,0,119.116-5.017Zm5.167,2.267.709.709a8.36,8.36,0,0,1-2.39,1.8,5.988,5.988,0,0,1-2.626.591,4.673,4.673,0,0,1-3.33-1.208,4.072,4.072,0,0,1-1.289-3.11,6.08,6.08,0,0,1,.623-2.632,6.99,6.99,0,0,1,1.708-2.267,7.111,7.111,0,0,1,2.186-1.343,6.824,6.824,0,0,1,2.476-.462,4.585,4.585,0,0,1,2.7.72,2.213,2.213,0,0,1,1.021,1.891,3.051,3.051,0,0,1-1.8,2.707,12.809,12.809,0,0,1-5.231,1.278q-.043.258-.064.478t-.021.424a2.414,2.414,0,0,0,.526,1.638,1.794,1.794,0,0,0,1.429.607,3.288,3.288,0,0,0,1.552-.435A9.114,9.114,0,0,0,124.283-2.75Zm8.076-2.267a6.393,6.393,0,0,0,3.126-1.289,2.856,2.856,0,0,0,1.182-2.234,1.019,1.019,0,0,0-.317-.773,1.145,1.145,0,0,0-.822-.3,2.293,2.293,0,0,0-1.8,1.214A10.264,10.264,0,0,0,132.359-5.017Zm5.167,2.267.709.709a8.36,8.36,0,0,1-2.39,1.8,5.988,5.988,0,0,1-2.626.591,4.673,4.673,0,0,1-3.33-1.208,4.072,4.072,0,0,1-1.289-3.11,6.08,6.08,0,0,1,.623-2.632,6.99,6.99,0,0,1,1.708-2.267,7.111,7.111,0,0,1,2.186-1.343,6.824,6.824,0,0,1,2.476-.462,4.585,4.585,0,0,1,2.7.72,2.213,2.213,0,0,1,1.021,1.891,3.051,3.051,0,0,1-1.8,2.707,12.809,12.809,0,0,1-5.231,1.278q-.043.258-.064.478t-.021.424a2.414,2.414,0,0,0,.526,1.638,1.794,1.794,0,0,0,1.429.607,3.288,3.288,0,0,0,1.552-.435A9.114,9.114,0,0,0,137.526-2.75Zm11.857-.569A9.814,9.814,0,0,1,147.2-.553a3.68,3.68,0,0,1-2.353.908,2.341,2.341,0,0,1-1.611-.5,1.824,1.824,0,0,1-.559-1.434,4.15,4.15,0,0,1,.064-.7,8.663,8.663,0,0,1,.236-.956l1.826-5.79h-2.062l.376-1.321h2.148l1.386-4.039h3.255l-1.289,4.039h2.417L150.7-9.023h-2.5l-1.944,6.338q-.107.344-.15.532a1.5,1.5,0,0,0-.043.328.392.392,0,0,0,.091.279.345.345,0,0,0,.263.1q.354,0,.913-.623a12.9,12.9,0,0,0,1.289-1.815Z" transform="translate(5870.165 2047.998)" fill="#4b74b5"/>
    <path id="Path_54" data-name="Path 54" d="M3.674-7.8a3.257,3.257,0,0,1,1.168.209,3.059,3.059,0,0,1,.964.58,2.491,2.491,0,0,1,.628.859.531.531,0,0,1,.048.22.517.517,0,0,1-.158.379.517.517,0,0,1-.379.158.53.53,0,0,1-.29-.094.526.526,0,0,1-.2-.228,1.575,1.575,0,0,0-.679-.736,2.16,2.16,0,0,0-1.1-.274,3.009,3.009,0,0,0-.647.075,2.682,2.682,0,0,0-.642.228,1.49,1.49,0,0,0-.489.384.826.826,0,0,0-.188.537.619.619,0,0,0,.161.427,1.247,1.247,0,0,0,.36.282,3.618,3.618,0,0,0,1.034.322q.567.091,1.147.177a4.324,4.324,0,0,1,1.08.3,2.513,2.513,0,0,1,.607.371,1.892,1.892,0,0,1,.473.575,1.649,1.649,0,0,1,.183.795,1.884,1.884,0,0,1-.285,1.037,2.418,2.418,0,0,1-.747.741,3.622,3.622,0,0,1-1,.443A3.989,3.989,0,0,1,3.663.113,3.8,3.8,0,0,1,2.353-.11,3.231,3.231,0,0,1,1.284-.744a2.784,2.784,0,0,1-.7-.964.52.52,0,0,1-.048-.215A.517.517,0,0,1,.7-2.3a.517.517,0,0,1,.379-.158.538.538,0,0,1,.3.094.486.486,0,0,1,.2.234,1.787,1.787,0,0,0,.8.857,2.615,2.615,0,0,0,1.294.314A3.218,3.218,0,0,0,4.582-1.1a1.952,1.952,0,0,0,.776-.424.95.95,0,0,0,.314-.733.627.627,0,0,0-.191-.47,1.371,1.371,0,0,0-.416-.282,4.269,4.269,0,0,0-1.09-.3q-.58-.083-1.155-.177a3.685,3.685,0,0,1-1.074-.346,2.471,2.471,0,0,1-.771-.626A1.565,1.565,0,0,1,.628-5.505,1.8,1.8,0,0,1,.9-6.491a2.379,2.379,0,0,1,.72-.72A3.534,3.534,0,0,1,2.6-7.654,3.949,3.949,0,0,1,3.674-7.8Zm4.815,1.37a.55.55,0,0,1-.4-.153.529.529,0,0,1-.161-.379l-.011-.408A.385.385,0,0,1,8.1-7.7a.619.619,0,0,1,.349-.126.51.51,0,0,1,.379.156.537.537,0,0,1,.158.376l.005.322a.57.57,0,0,1-.14.376A.448.448,0,0,1,8.489-6.435Zm-.58,1.015a.4.4,0,0,1,.172-.333.559.559,0,0,1,.333-.129.606.606,0,0,1,.4.14.46.46,0,0,1,.167.371v.005L8.994-.392a.485.485,0,0,1-.158.365.531.531,0,0,1-.379.15A.523.523,0,0,1,8.075-.03.5.5,0,0,1,7.92-.4Zm4.477-.467a1.663,1.663,0,0,1,.916.252,2.278,2.278,0,0,1,.647.612,3.063,3.063,0,0,1,.725-.61,1.771,1.771,0,0,1,.945-.26,1.754,1.754,0,0,1,1.141.368,2.186,2.186,0,0,1,.674.964,3.692,3.692,0,0,1,.22,1.289L17.66-.408a.506.506,0,0,1-.156.371.519.519,0,0,1-.381.156.519.519,0,0,1-.381-.156.506.506,0,0,1-.156-.371L16.58-3.26a3.712,3.712,0,0,0-.075-.765,1.217,1.217,0,0,0-.274-.577.734.734,0,0,0-.575-.22,1.071,1.071,0,0,0-.679.22,1.39,1.39,0,0,0-.43.577,2,2,0,0,0-.148.771l.005,2.863a.493.493,0,0,1-.158.368.526.526,0,0,1-.379.153.519.519,0,0,1-.381-.156A.506.506,0,0,1,13.331-.4V-3.25a1.947,1.947,0,0,0-.169-.854,1.308,1.308,0,0,0-.435-.529.962.962,0,0,0-.545-.18.927.927,0,0,0-.714.371,1.751,1.751,0,0,0-.317,1.155v2.9a.493.493,0,0,1-.158.368.526.526,0,0,1-.379.153.521.521,0,0,1-.379-.156A.5.5,0,0,1,10.076-.4V-5.366a.772.772,0,0,1,.083-.373.32.32,0,0,1,.309-.153.535.535,0,0,1,.328.113.771.771,0,0,1,.242.376l.1.3a1.321,1.321,0,0,1,.529-.567A1.393,1.393,0,0,1,12.386-5.887ZM24.516-2.879A3.241,3.241,0,0,1,24.293-1.7a2.874,2.874,0,0,1-.669,1.015,2.815,2.815,0,0,1-.9.591,2.76,2.76,0,0,1-1.058.209,2.033,2.033,0,0,1-.991-.236,2.828,2.828,0,0,1-.781-.639V1.5a.537.537,0,0,1-1.074,0V-5.355a.517.517,0,0,1,.158-.379.517.517,0,0,1,.379-.158.376.376,0,0,1,.33.158.875.875,0,0,1,.142.379l.064.435a2.13,2.13,0,0,1,.808-.693,2.214,2.214,0,0,1,1-.252,2.594,2.594,0,0,1,1.12.242,2.847,2.847,0,0,1,.894.658,3.025,3.025,0,0,1,.591.953A3.091,3.091,0,0,1,24.516-2.879Zm-2.8-1.912a1.69,1.69,0,0,0-.693.153,1.716,1.716,0,0,0-.585.422,1.842,1.842,0,0,0-.373.626,2.149,2.149,0,0,0-.132.739,2.034,2.034,0,0,0,.226.951,1.835,1.835,0,0,0,.623.7,1.607,1.607,0,0,0,.908.263,1.55,1.55,0,0,0,.908-.277,1.949,1.949,0,0,0,.626-.72,2.03,2.03,0,0,0,.228-.943,2.012,2.012,0,0,0-.226-.94,1.9,1.9,0,0,0-.618-.7A1.54,1.54,0,0,0,21.712-4.791Zm4.2-3.045a.535.535,0,0,1,.414.169.512.512,0,0,1,.15.368V-.381a.418.418,0,0,1-.169.346A.548.548,0,0,1,25.974.1a.583.583,0,0,1-.4-.15A.494.494,0,0,1,25.4-.44V-7.3a.545.545,0,0,1,.148-.371A.466.466,0,0,1,25.915-7.836Zm2.275,1.4a.55.55,0,0,1-.4-.153.529.529,0,0,1-.161-.379l-.011-.408A.385.385,0,0,1,27.8-7.7a.619.619,0,0,1,.349-.126.51.51,0,0,1,.379.156.537.537,0,0,1,.158.376l.005.322a.57.57,0,0,1-.14.376A.448.448,0,0,1,28.19-6.435Zm-.58,1.015a.4.4,0,0,1,.172-.333.559.559,0,0,1,.333-.129.606.606,0,0,1,.4.14.46.46,0,0,1,.167.371v.005l.011,4.974a.485.485,0,0,1-.158.365.531.531,0,0,1-.379.15.523.523,0,0,1-.381-.153A.5.5,0,0,1,27.62-.4Zm1.893.145a.465.465,0,0,1,.126-.3.391.391,0,0,1,.309-.148l.795-.005V-5.8a2.375,2.375,0,0,1,.408-1.423,1.461,1.461,0,0,1,1.273-.5L33-7.713a.508.508,0,0,1,.376.158.521.521,0,0,1,.156.379.5.5,0,0,1-.156.371.528.528,0,0,1-.381.15l-.6-.086a.758.758,0,0,0-.406.083.41.41,0,0,0-.161.293,3.564,3.564,0,0,0-.03.6l.005.048,1.085.005a.5.5,0,0,1,.363.145.472.472,0,0,1,.148.349.5.5,0,0,1-.14.33.415.415,0,0,1-.317.158l-1.139.011.011,4.329v.005a.476.476,0,0,1-.158.363.536.536,0,0,1-.379.148A.536.536,0,0,1,30.9-.024a.476.476,0,0,1-.158-.363V-.392l-.011-4.34-.72-.005a.488.488,0,0,1-.363-.15A.529.529,0,0,1,29.5-5.274Zm5.368-1.16a.55.55,0,0,1-.4-.153.529.529,0,0,1-.161-.379L34.3-7.375a.385.385,0,0,1,.183-.33.619.619,0,0,1,.349-.126.51.51,0,0,1,.379.156.537.537,0,0,1,.158.376l.005.322a.57.57,0,0,1-.14.376A.448.448,0,0,1,34.871-6.435Zm-.58,1.015a.4.4,0,0,1,.172-.333.559.559,0,0,1,.333-.129.606.606,0,0,1,.4.14.46.46,0,0,1,.167.371v.005l.011,4.974a.485.485,0,0,1-.158.365.531.531,0,0,1-.379.15.523.523,0,0,1-.381-.153A.5.5,0,0,1,34.3-.4Zm4.831-.446a2.517,2.517,0,0,1,1.311.354,2.746,2.746,0,0,1,.959.953,2.517,2.517,0,0,1,.363,1.329,2.974,2.974,0,0,1-.016.306.5.5,0,0,1-.18.336.532.532,0,0,1-.357.137l-3.754.005a1.956,1.956,0,0,0,.344.725,2.022,2.022,0,0,0,.615.548,1.556,1.556,0,0,0,.792.209,1.542,1.542,0,0,0,.827-.226,1.874,1.874,0,0,0,.569-.521.5.5,0,0,1,.2-.172.534.534,0,0,1,.25-.07.513.513,0,0,1,.379.161.526.526,0,0,1,.158.381.511.511,0,0,1-.1.306,2.949,2.949,0,0,1-.916.846A2.533,2.533,0,0,1,39.213.1,2.726,2.726,0,0,1,38.067-.14,2.9,2.9,0,0,1,37.146-.8a3.053,3.053,0,0,1-.61-.964,3.08,3.08,0,0,1-.218-1.152,2.934,2.934,0,0,1,.215-1.115,3.072,3.072,0,0,1,.6-.943,2.872,2.872,0,0,1,.894-.653A2.551,2.551,0,0,1,39.122-5.865Zm1.525,2.342a1.56,1.56,0,0,0-.526-.9,1.47,1.47,0,0,0-1-.371,1.549,1.549,0,0,0-1.034.381,1.882,1.882,0,0,0-.6.892Zm1.8.634a3.207,3.207,0,0,1,.226-1.182,2.941,2.941,0,0,1,.666-1.015,2.815,2.815,0,0,1,.9-.591A2.76,2.76,0,0,1,45.3-5.887a2.048,2.048,0,0,1,.994.236,2.742,2.742,0,0,1,.779.639V-7.272a.517.517,0,0,1,.158-.379.517.517,0,0,1,.379-.158.517.517,0,0,1,.379.158.517.517,0,0,1,.158.379V-.414a.517.517,0,0,1-.158.379.517.517,0,0,1-.379.158.376.376,0,0,1-.33-.158.875.875,0,0,1-.142-.379l-.064-.435a2.13,2.13,0,0,1-.808.693,2.214,2.214,0,0,1-1,.252,2.594,2.594,0,0,1-1.12-.242A2.847,2.847,0,0,1,43.25-.8a3.025,3.025,0,0,1-.591-.953A3.091,3.091,0,0,1,42.449-2.89Zm2.8,1.912a1.665,1.665,0,0,0,.693-.156,1.784,1.784,0,0,0,.585-.419,1.908,1.908,0,0,0,.373-.628,2.127,2.127,0,0,0,.132-.736,2.034,2.034,0,0,0-.226-.951,1.843,1.843,0,0,0-.62-.7,1.6,1.6,0,0,0-.91-.263,1.554,1.554,0,0,0-.905.277,1.94,1.94,0,0,0-.628.72,2.03,2.03,0,0,0-.228.943,2.017,2.017,0,0,0,.226.937,1.88,1.88,0,0,0,.62.706A1.544,1.544,0,0,0,45.253-.978Zm7.2-3v-.07l-.005-3.1a.512.512,0,0,1,.156-.376.526.526,0,0,1,.371-.161l1.413-.027q.118-.005.231-.005h.22a5.1,5.1,0,0,1,1.149.129,3.388,3.388,0,0,1,1,.4,2.06,2.06,0,0,1,.7.7,1.927,1.927,0,0,1,.26,1.023,1.865,1.865,0,0,1-.532,1.332,2.07,2.07,0,0,1,.612.722,2.2,2.2,0,0,1,.236,1.039,2.38,2.38,0,0,1-.328,1.286,2.111,2.111,0,0,1-.9.8A3.2,3.2,0,0,1,55.721,0L53.009.005H53a.517.517,0,0,1-.379-.158.517.517,0,0,1-.158-.379Zm4.426-1.461a.9.9,0,0,0-.33-.749,1.9,1.9,0,0,0-.827-.357,5.232,5.232,0,0,0-1-.1l-.156,0-.156,0-.886.016.005,2.068L55.6-4.582a2.762,2.762,0,0,0,.62-.078,1,1,0,0,0,.478-.258A.7.7,0,0,0,56.881-5.436ZM55.7-1.074a1.84,1.84,0,0,0,1.109-.309A1.2,1.2,0,0,0,57.2-2.4a.906.906,0,0,0-.424-.873,2.234,2.234,0,0,0-1.085-.234h-.07l-2.089.032.005,2.4Zm6.426-4.807a2.816,2.816,0,0,1,1.152.236,2.934,2.934,0,0,1,.937.655,3.121,3.121,0,0,1,.631.961,2.947,2.947,0,0,1,.228,1.155,2.871,2.871,0,0,1-.231,1.141,3.046,3.046,0,0,1-.636.951,3.03,3.03,0,0,1-.94.647A2.79,2.79,0,0,1,62.126.1,2.833,2.833,0,0,1,60.99-.129a2.976,2.976,0,0,1-.94-.639,3.014,3.014,0,0,1-.636-.948,2.911,2.911,0,0,1-.231-1.157,2.917,2.917,0,0,1,.231-1.155,3.1,3.1,0,0,1,.636-.959,3.032,3.032,0,0,1,.937-.655A2.745,2.745,0,0,1,62.126-5.881ZM60.268-2.863a1.813,1.813,0,0,0,.255.948,1.93,1.93,0,0,0,.679.679,1.784,1.784,0,0,0,.929.252,1.748,1.748,0,0,0,.937-.26,1.952,1.952,0,0,0,.671-.69,1.837,1.837,0,0,0,.25-.94,1.917,1.917,0,0,0-.247-.959,1.932,1.932,0,0,0-.669-.7,1.753,1.753,0,0,0-.948-.263,1.736,1.736,0,0,0-.951.266,1.94,1.94,0,0,0-.663.7A1.944,1.944,0,0,0,60.268-2.863Zm8.527-3.045a1.993,1.993,0,0,1,.776.158,2.806,2.806,0,0,1,.677.4,1.791,1.791,0,0,1,.443.491l.059-.516a.581.581,0,0,1,.129-.379.426.426,0,0,1,.349-.158.517.517,0,0,1,.379.158.517.517,0,0,1,.158.379v.011L71.754-.392a.517.517,0,0,1-.158.379.517.517,0,0,1-.379.158.426.426,0,0,1-.349-.158.581.581,0,0,1-.129-.379l-.059-.43a1.7,1.7,0,0,1-.816.712,2.686,2.686,0,0,1-1.08.234,2.745,2.745,0,0,1-1.139-.239,2.979,2.979,0,0,1-.935-.658,3.121,3.121,0,0,1-.631-.961,2.92,2.92,0,0,1-.228-1.144,2.987,2.987,0,0,1,.223-1.141,3.157,3.157,0,0,1,.623-.972,2.949,2.949,0,0,1,.935-.671A2.763,2.763,0,0,1,68.794-5.908ZM70.647-2.89a1.959,1.959,0,0,0-.244-.967,1.955,1.955,0,0,0-.663-.709,1.733,1.733,0,0,0-.956-.269,1.741,1.741,0,0,0-.951.269,1.955,1.955,0,0,0-.671.712,1.937,1.937,0,0,0-.247.959,1.914,1.914,0,0,0,.252.964,1.992,1.992,0,0,0,.679.712,1.735,1.735,0,0,0,.943.269,1.709,1.709,0,0,0,.937-.269,1.986,1.986,0,0,0,.671-.712A1.92,1.92,0,0,0,70.647-2.89ZM76.51-5.2a.426.426,0,0,1-.414.478.725.725,0,0,1-.381-.1,1.035,1.035,0,0,0-.467-.115,1.088,1.088,0,0,0-.741.239,1.321,1.321,0,0,0-.392.642,3.2,3.2,0,0,0-.118.9V-.387a.5.5,0,0,1-.142.376.54.54,0,0,1-.395.14.541.541,0,0,1-.392-.14.5.5,0,0,1-.145-.381V-5.339a.629.629,0,0,1,.121-.4.4.4,0,0,1,.33-.156.556.556,0,0,1,.287.1.567.567,0,0,1,.228.357l.054.387a1.32,1.32,0,0,1,.269-.349,2.015,2.015,0,0,1,.473-.346,1.184,1.184,0,0,1,.569-.148,2.729,2.729,0,0,1,.9.126A.527.527,0,0,1,76.51-5.2Zm.244,2.315a3.207,3.207,0,0,1,.226-1.182,2.942,2.942,0,0,1,.666-1.015,2.815,2.815,0,0,1,.9-.591,2.76,2.76,0,0,1,1.058-.209,2.048,2.048,0,0,1,.994.236,2.742,2.742,0,0,1,.779.639V-7.272a.517.517,0,0,1,.158-.379.517.517,0,0,1,.379-.158.517.517,0,0,1,.379.158.517.517,0,0,1,.158.379V-.414a.517.517,0,0,1-.158.379.517.517,0,0,1-.379.158.376.376,0,0,1-.33-.158.875.875,0,0,1-.142-.379l-.064-.435a2.13,2.13,0,0,1-.808.693,2.214,2.214,0,0,1-1,.252,2.594,2.594,0,0,1-1.12-.242A2.847,2.847,0,0,1,77.554-.8a3.025,3.025,0,0,1-.591-.953A3.091,3.091,0,0,1,76.754-2.89Zm2.8,1.912a1.665,1.665,0,0,0,.693-.156,1.784,1.784,0,0,0,.585-.419,1.908,1.908,0,0,0,.373-.628,2.127,2.127,0,0,0,.132-.736,2.034,2.034,0,0,0-.226-.951,1.843,1.843,0,0,0-.62-.7,1.6,1.6,0,0,0-.91-.263,1.554,1.554,0,0,0-.905.277,1.94,1.94,0,0,0-.628.72,2.03,2.03,0,0,0-.228.943,2.017,2.017,0,0,0,.226.937,1.88,1.88,0,0,0,.62.706A1.544,1.544,0,0,0,79.558-.978ZM87.179,0A.517.517,0,0,1,86.8-.158a.517.517,0,0,1-.158-.379L86.626-7.2a.875.875,0,0,1-.005-.1.32.32,0,0,1,.035-.145,1.558,1.558,0,0,1,.083-.145.411.411,0,0,1,.371-.209.537.537,0,0,1,.532.3l2.874,4.689L93.173-7.5a.489.489,0,0,1,.435-.269.592.592,0,0,1,.4.15.49.49,0,0,1,.172.387V-.516a.517.517,0,0,1-.158.379.517.517,0,0,1-.379.158.517.517,0,0,1-.379-.158.517.517,0,0,1-.158-.379v-4.8L91-1.482a.659.659,0,0,1-.183.185.451.451,0,0,1-.269.089.536.536,0,0,1-.478-.258L87.7-5.339l.016,4.8v.005a.517.517,0,0,1-.158.379A.517.517,0,0,1,87.179,0ZM98.042-5.908a1.993,1.993,0,0,1,.776.158,2.806,2.806,0,0,1,.677.4,1.791,1.791,0,0,1,.443.491L100-5.376a.581.581,0,0,1,.129-.379.426.426,0,0,1,.349-.158.517.517,0,0,1,.379.158.517.517,0,0,1,.158.379v.011L101-.392a.517.517,0,0,1-.158.379.517.517,0,0,1-.379.158.426.426,0,0,1-.349-.158.581.581,0,0,1-.129-.379l-.059-.43a1.7,1.7,0,0,1-.816.712,2.686,2.686,0,0,1-1.08.234,2.745,2.745,0,0,1-1.139-.239,2.979,2.979,0,0,1-.935-.658,3.121,3.121,0,0,1-.631-.961A2.92,2.92,0,0,1,95.1-2.879a2.987,2.987,0,0,1,.223-1.141,3.157,3.157,0,0,1,.623-.972,2.949,2.949,0,0,1,.935-.671A2.763,2.763,0,0,1,98.042-5.908ZM99.9-2.89a1.959,1.959,0,0,0-.244-.967,1.955,1.955,0,0,0-.663-.709,1.733,1.733,0,0,0-.956-.269,1.741,1.741,0,0,0-.951.269,1.955,1.955,0,0,0-.671.712,1.937,1.937,0,0,0-.247.959,1.914,1.914,0,0,0,.252.964,1.992,1.992,0,0,0,.679.712,1.735,1.735,0,0,0,.943.269,1.709,1.709,0,0,0,.937-.269,1.986,1.986,0,0,0,.671-.712A1.92,1.92,0,0,0,99.9-2.89Zm3.349-2.143a5.211,5.211,0,0,1,.7-.564,1.621,1.621,0,0,1,.943-.279,1.817,1.817,0,0,1,1.171.373,2.312,2.312,0,0,1,.688.867,2.491,2.491,0,0,1,.207.776q.035.384.035.722V-.424a.517.517,0,0,1-.158.379.517.517,0,0,1-.379.158.517.517,0,0,1-.379-.158.517.517,0,0,1-.158-.379V-3.137a5.375,5.375,0,0,0-.03-.585,1.576,1.576,0,0,0-.121-.473,1.166,1.166,0,0,0-.317-.422.809.809,0,0,0-.548-.185,1.4,1.4,0,0,0-1.222.607,2.773,2.773,0,0,0-.422,1.638l.005,2.143a.517.517,0,0,1-.158.379.517.517,0,0,1-.379.158.514.514,0,0,1-.381-.158.528.528,0,0,1-.156-.384l-.011-4.936a.606.606,0,0,1,.121-.379.4.4,0,0,1,.341-.158.4.4,0,0,1,.338.158,1.183,1.183,0,0,1,.183.379Zm7.7-.875a1.993,1.993,0,0,1,.776.158,2.806,2.806,0,0,1,.677.4,1.791,1.791,0,0,1,.443.491l.059-.516a.581.581,0,0,1,.129-.379.426.426,0,0,1,.349-.158.517.517,0,0,1,.379.158.517.517,0,0,1,.158.379v.011l-.011,4.974a.517.517,0,0,1-.158.379.517.517,0,0,1-.379.158.426.426,0,0,1-.349-.158.581.581,0,0,1-.129-.379l-.059-.43a1.7,1.7,0,0,1-.816.712,2.686,2.686,0,0,1-1.08.234A2.745,2.745,0,0,1,109.8-.115a2.979,2.979,0,0,1-.935-.658,3.121,3.121,0,0,1-.631-.961,2.92,2.92,0,0,1-.228-1.144,2.987,2.987,0,0,1,.223-1.141,3.157,3.157,0,0,1,.623-.972,2.949,2.949,0,0,1,.935-.671A2.763,2.763,0,0,1,110.949-5.908ZM112.8-2.89a1.959,1.959,0,0,0-.244-.967,1.955,1.955,0,0,0-.663-.709,1.733,1.733,0,0,0-.956-.269,1.741,1.741,0,0,0-.951.269,1.955,1.955,0,0,0-.671.712,1.937,1.937,0,0,0-.247.959,1.914,1.914,0,0,0,.252.964,1.992,1.992,0,0,0,.679.712,1.735,1.735,0,0,0,.943.269,1.709,1.709,0,0,0,.937-.269,1.986,1.986,0,0,0,.671-.712A1.92,1.92,0,0,0,112.8-2.89ZM119.969-5.9a.517.517,0,0,1,.379.158.517.517,0,0,1,.158.379v.011l-.038,5.129a2.8,2.8,0,0,1-.244,1.133,3.043,3.043,0,0,1-.658.94,3.122,3.122,0,0,1-.959.639,2.884,2.884,0,0,1-1.147.231,2.971,2.971,0,0,1-1.3-.3,2.982,2.982,0,0,1-1.05-.835.54.54,0,0,1-.124-.344.517.517,0,0,1,.158-.379A.517.517,0,0,1,115.522.7a.555.555,0,0,1,.234.059.516.516,0,0,1,.2.15,1.947,1.947,0,0,0,.679.532,1.9,1.9,0,0,0,.835.2,1.855,1.855,0,0,0,.959-.258,2.021,2.021,0,0,0,.7-.687,1.752,1.752,0,0,0,.266-.94V-.768a1.681,1.681,0,0,1-.765.679,2.378,2.378,0,0,1-.916.185,2.388,2.388,0,0,1-1.088-.252,2.808,2.808,0,0,1-.873-.682,3.237,3.237,0,0,1-.577-.975,3.147,3.147,0,0,1-.207-1.125,3.02,3.02,0,0,1,.207-1.109,3.079,3.079,0,0,1,.577-.943,2.788,2.788,0,0,1,.87-.655,2.47,2.47,0,0,1,1.09-.242,2.011,2.011,0,0,1,.956.236,2.041,2.041,0,0,1,.757.72l.081-.43a1.172,1.172,0,0,1,.14-.381A.346.346,0,0,1,119.969-5.9Zm-.585,2.97a2.009,2.009,0,0,0-.215-.916,1.886,1.886,0,0,0-.588-.7,1.421,1.421,0,0,0-.851-.269,1.472,1.472,0,0,0-.867.266,1.867,1.867,0,0,0-.6.693,1.989,1.989,0,0,0-.218.916,2.132,2.132,0,0,0,.215.932,2.017,2.017,0,0,0,.591.739,1.369,1.369,0,0,0,.859.29,1.389,1.389,0,0,0,.857-.285,1.983,1.983,0,0,0,.6-.733A2.122,2.122,0,0,0,119.384-2.933Zm4.89-2.933a2.517,2.517,0,0,1,1.311.354,2.746,2.746,0,0,1,.959.953,2.517,2.517,0,0,1,.363,1.329,2.974,2.974,0,0,1-.016.306.5.5,0,0,1-.18.336.532.532,0,0,1-.357.137l-3.754.005a1.956,1.956,0,0,0,.344.725,2.022,2.022,0,0,0,.615.548,1.556,1.556,0,0,0,.792.209,1.542,1.542,0,0,0,.827-.226,1.874,1.874,0,0,0,.569-.521.5.5,0,0,1,.2-.172.535.535,0,0,1,.25-.07.513.513,0,0,1,.379.161.526.526,0,0,1,.158.381.511.511,0,0,1-.1.306,2.949,2.949,0,0,1-.916.846A2.533,2.533,0,0,1,124.365.1a2.726,2.726,0,0,1-1.147-.242A2.9,2.9,0,0,1,122.3-.8a3.053,3.053,0,0,1-.61-.964,3.08,3.08,0,0,1-.218-1.152,2.934,2.934,0,0,1,.215-1.115,3.072,3.072,0,0,1,.6-.943,2.872,2.872,0,0,1,.894-.653A2.551,2.551,0,0,1,124.274-5.865ZM125.8-3.523a1.56,1.56,0,0,0-.526-.9,1.47,1.47,0,0,0-1-.371,1.549,1.549,0,0,0-1.034.381,1.882,1.882,0,0,0-.6.892Zm4.3-2.363a1.663,1.663,0,0,1,.916.252,2.278,2.278,0,0,1,.647.612,3.063,3.063,0,0,1,.725-.61,1.771,1.771,0,0,1,.945-.26,1.754,1.754,0,0,1,1.141.368,2.186,2.186,0,0,1,.674.964,3.692,3.692,0,0,1,.22,1.289l.005,2.863a.506.506,0,0,1-.156.371.519.519,0,0,1-.381.156.519.519,0,0,1-.381-.156.506.506,0,0,1-.156-.371L134.3-3.26a3.712,3.712,0,0,0-.075-.765,1.217,1.217,0,0,0-.274-.577.734.734,0,0,0-.575-.22,1.071,1.071,0,0,0-.679.22,1.39,1.39,0,0,0-.43.577,2,2,0,0,0-.148.771l.005,2.863a.493.493,0,0,1-.158.368.526.526,0,0,1-.379.153.519.519,0,0,1-.381-.156A.506.506,0,0,1,131.05-.4V-3.25a1.947,1.947,0,0,0-.169-.854,1.308,1.308,0,0,0-.435-.529.962.962,0,0,0-.545-.18.927.927,0,0,0-.714.371,1.751,1.751,0,0,0-.317,1.155v2.9a.493.493,0,0,1-.158.368.526.526,0,0,1-.379.153.521.521,0,0,1-.379-.156.5.5,0,0,1-.158-.371V-5.366a.772.772,0,0,1,.083-.373.32.32,0,0,1,.309-.153.535.535,0,0,1,.328.113.771.771,0,0,1,.242.376l.1.3a1.321,1.321,0,0,1,.529-.567A1.393,1.393,0,0,1,130.1-5.887Zm9.021.021a2.517,2.517,0,0,1,1.311.354,2.746,2.746,0,0,1,.959.953,2.517,2.517,0,0,1,.363,1.329,2.974,2.974,0,0,1-.016.306.5.5,0,0,1-.18.336.532.532,0,0,1-.357.137l-3.754.005a1.956,1.956,0,0,0,.344.725,2.022,2.022,0,0,0,.615.548,1.556,1.556,0,0,0,.792.209,1.542,1.542,0,0,0,.827-.226,1.874,1.874,0,0,0,.569-.521.5.5,0,0,1,.2-.172.534.534,0,0,1,.25-.07.513.513,0,0,1,.379.161.526.526,0,0,1,.158.381.511.511,0,0,1-.1.306,2.949,2.949,0,0,1-.916.846A2.533,2.533,0,0,1,139.216.1a2.726,2.726,0,0,1-1.147-.242,2.9,2.9,0,0,1-.921-.661,3.053,3.053,0,0,1-.61-.964,3.08,3.08,0,0,1-.218-1.152,2.934,2.934,0,0,1,.215-1.115,3.072,3.072,0,0,1,.6-.943,2.872,2.872,0,0,1,.894-.653A2.551,2.551,0,0,1,139.125-5.865Zm1.525,2.342a1.56,1.56,0,0,0-.526-.9,1.47,1.47,0,0,0-1-.371,1.549,1.549,0,0,0-1.034.381,1.882,1.882,0,0,0-.6.892Zm3.118-1.509a5.212,5.212,0,0,1,.7-.564,1.621,1.621,0,0,1,.943-.279,1.817,1.817,0,0,1,1.171.373,2.312,2.312,0,0,1,.688.867,2.491,2.491,0,0,1,.207.776q.035.384.035.722V-.424a.517.517,0,0,1-.158.379.517.517,0,0,1-.379.158.517.517,0,0,1-.379-.158.517.517,0,0,1-.158-.379V-3.137a5.373,5.373,0,0,0-.03-.585,1.576,1.576,0,0,0-.121-.473,1.166,1.166,0,0,0-.317-.422.809.809,0,0,0-.548-.185,1.4,1.4,0,0,0-1.222.607,2.772,2.772,0,0,0-.422,1.638l.005,2.143a.517.517,0,0,1-.158.379.517.517,0,0,1-.379.158.514.514,0,0,1-.381-.158.528.528,0,0,1-.156-.384l-.011-4.936a.606.606,0,0,1,.121-.379.4.4,0,0,1,.341-.158.4.4,0,0,1,.338.158,1.183,1.183,0,0,1,.183.379Zm5.7-1.81a.521.521,0,0,1,.156-.379.514.514,0,0,1,.381-.158.517.517,0,0,1,.379.158.517.517,0,0,1,.158.379v1.069h.72a.491.491,0,0,1,.36.15.491.491,0,0,1,.15.36.491.491,0,0,1-.15.36.491.491,0,0,1-.36.15h-.725l-.005,3.325v.011a.774.774,0,0,0,.059.363.259.259,0,0,0,.242.1.7.7,0,0,0,.408-.124.789.789,0,0,1,.156-.078.5.5,0,0,1,.177-.035.521.521,0,0,1,.379.156.508.508,0,0,1,.158.376.505.505,0,0,1-.215.424,1.893,1.893,0,0,1-.467.258,1.546,1.546,0,0,1-.564.1,1.312,1.312,0,0,1-1.042-.416,1.519,1.519,0,0,1-.365-1.039V-1.38l.005-3.368h-.693a.491.491,0,0,1-.36-.15.491.491,0,0,1-.15-.36.491.491,0,0,1,.15-.36.491.491,0,0,1,.36-.15h.7Z" transform="translate(5869.331 2059.679)" fill="#414141"/>
  </g>
</svg>
