<svg xmlns="http://www.w3.org/2000/svg" width="19.663" height="24.301" viewBox="0 0 19.663 24.301">
  <g id="Group_1112" data-name="Group 1112" transform="translate(-4.839 -3.326)">
    <path id="Path_7999" data-name="Path 7999" d="M130.154,66.418a5.709,5.709,0,1,0-5.709-5.709A5.709,5.709,0,0,0,130.154,66.418Zm0-10.305a4.6,4.6,0,1,1-4.6,4.6A4.6,4.6,0,0,1,130.154,56.113Zm0,0" transform="translate(-115.484 -51.673)" fill="#fff"/>
    <path id="Path_8000" data-name="Path 8000" d="M80.557,215.388h18.55a.557.557,0,0,0,.557-.556,9.831,9.831,0,1,0-19.663,0A.557.557,0,0,0,80.557,215.388Zm9.275-9.275a8.73,8.73,0,0,1,8.7,8.162H81.13A8.73,8.73,0,0,1,89.831,206.113Zm0,0" transform="translate(-75.161 -187.761)" fill="#fff"/>
  </g>
</svg>
