<svg xmlns="http://www.w3.org/2000/svg" width="24.174" height="6.043" viewBox="0 0 24.174 6.043">
  <g id="Group_1115" data-name="Group 1115" transform="translate(-316 -766)">
    <g id="Group_1114" data-name="Group 1114">
      <g id="more" transform="translate(316 766)">
        <g id="normal">
          <path id="Path_11" data-name="Path 11" d="M3.022,0A3.022,3.022,0,1,0,6.043,3.022,3.031,3.031,0,0,0,3.022,0Zm0,5.036A2.014,2.014,0,1,1,5.036,3.022,2.02,2.02,0,0,1,3.022,5.036Z" fill="#fff"/>
          <path id="Path_12" data-name="Path 12" d="M21.022,0a3.022,3.022,0,1,0,3.022,3.022A3.031,3.031,0,0,0,21.022,0Zm0,5.036a2.014,2.014,0,1,1,2.014-2.014A2.02,2.02,0,0,1,21.022,5.036Z" transform="translate(-8.935)" fill="#fff"/>
          <path id="Path_13" data-name="Path 13" d="M39.022,0a3.022,3.022,0,1,0,3.022,3.022A3.031,3.031,0,0,0,39.022,0Zm0,5.036a2.014,2.014,0,1,1,2.014-2.014A2.02,2.02,0,0,1,39.022,5.036Z" transform="translate(-17.87)" fill="#fff"/>
        </g>
      </g>
    </g>
  </g>
</svg>
