<svg xmlns="http://www.w3.org/2000/svg" width="27" height="27" viewBox="0 0 27 27">
  <g id="share" transform="translate(0 0)">
    <path id="Path_8527" data-name="Path 8527" d="M24.75,0H2.25A2.253,2.253,0,0,0,0,2.25v17.1A2.253,2.253,0,0,0,2.25,21.6H9.84L9.5,24.3H8.55a1.35,1.35,0,1,0,0,2.7h9.9a1.35,1.35,0,1,0,0-2.7H17.5l-.337-2.7h7.59A2.253,2.253,0,0,0,27,19.35V2.25A2.253,2.253,0,0,0,24.75,0ZM2.25.9h22.5A1.35,1.35,0,0,1,26.1,2.25V3.6H.9V2.25A1.35,1.35,0,0,1,2.25.9ZM26.1,4.5V17.1H.9V4.5ZM18.9,25.65a.45.45,0,0,1-.45.45H8.55a.45.45,0,1,1,0-.9h9.9A.45.45,0,0,1,18.9,25.65ZM16.59,24.3H10.41l.337-2.7h5.505Zm8.16-3.6H2.25A1.35,1.35,0,0,1,.9,19.35V18H26.1v1.35A1.35,1.35,0,0,1,24.75,20.7Zm0,0" fill="#fff"/>
    <path id="Path_8528" data-name="Path 8528" d="M416,336h.9v.9H416Zm0,0" transform="translate(-392.6 -317.1)" fill="#fff"/>
    <path id="Path_8529" data-name="Path 8529" d="M48,32h.9v.9H48Zm0,0" transform="translate(-45.3 -30.2)" fill="#fff"/>
    <path id="Path_8530" data-name="Path 8530" d="M80,32h.9v.9H80Zm0,0" transform="translate(-75.5 -30.2)" fill="#fff"/>
    <path id="Path_8531" data-name="Path 8531" d="M112,32h.9v.9H112Zm0,0" transform="translate(-105.7 -30.2)" fill="#fff"/>
    <path id="Path_8532" data-name="Path 8532" d="M144.45,111.2h2.25v2.25a.45.45,0,0,0,.45.45h6.3a.45.45,0,0,0,.45-.45v-6.3a.45.45,0,0,0-.45-.45H151.2v-2.25a.45.45,0,0,0-.45-.45h-6.3a.45.45,0,0,0-.45.45v6.3A.45.45,0,0,0,144.45,111.2ZM153,113h-5.4v-5.4H153Zm-8.1-8.1h5.4v1.8h-3.15a.45.45,0,0,0-.45.45v3.15h-1.8Zm0,0" transform="translate(-135.9 -98.15)" fill="#fff"/>
  </g>
</svg>
