<?xml version="1.0" encoding="utf-8"?>
<!-- Generator: Adobe Illustrator 16.0.0, SVG Export Plug-In . SVG Version: 6.00 Build 0)  -->
<!DOCTYPE svg PUBLIC "-//W3C//DTD SVG 1.1//EN" "http://www.w3.org/Graphics/SVG/1.1/DTD/svg11.dtd">
<svg version="1.1" id="Layer_1" xmlns="http://www.w3.org/2000/svg" xmlns:xlink="http://www.w3.org/1999/xlink" x="0px" y="0px"
	 width="960px" height="560px" viewBox="0 0 960 560" style="enable-background:new 0 0 960 560;" xml:space="preserve">
<g>
	<path d="M576.019,397.348h-42.657v42.656h42.657V397.348z M501.381,248.02h-42.657v42.658h42.657V248.02z M576.019,322.657h-42.657
		v42.71h42.657V322.657z M576.019,248.02h-42.657v42.658h42.657V248.02z M650.709,248.02h-42.658v42.658h42.658V248.02z
		 M650.709,322.657h-42.658v42.71h42.658V322.657z M501.381,322.657h-42.657v42.71h42.657V322.657z M426.685,248.02h-42.657v42.658
		h42.657V248.02z M352.054,322.657h-42.723v42.71h42.723V322.657z M426.685,397.348h-42.657v42.656h42.657V397.348z
		 M352.054,397.348h-42.723v42.656h42.723V397.348z M426.685,322.657h-42.657v42.71h42.657V322.657z M501.381,397.348h-42.657
		v42.656h42.657V397.348z M640.031,66.647V24.004h-21.303v42.644H341.37V24.004h-21.354v42.644h-95.992v469.349h512V66.647H640.031z
		 M714.721,514.693H245.385V194.686h469.336V514.693z M714.721,173.317H245.385V88.016h74.631v21.289h21.354V88.016h277.358v21.289
		h21.303V88.016h74.689V173.317z M714.721,173.317"/>
</g>
</svg>
