<?xml version="1.0" encoding="iso-8859-1"?>
<!-- Generator: Adobe Illustrator 19.0.0, SVG Export Plug-In . SVG Version: 6.00 Build 0)  -->
<svg xmlns="http://www.w3.org/2000/svg" xmlns:xlink="http://www.w3.org/1999/xlink" version="1.1" id="Capa_1" x="0px" y="0px" viewBox="0 0 512.01 512.01" style="enable-background:new 0 0 512.01 512.01;" xml:space="preserve" width="512px" height="512px">
<g>
	<g>
		<rect x="21.338" y="319.842" width="21.333" height="21.333" fill="#FFFFFF"/>
	</g>
</g>
<g>
	<g>
		<rect x="21.338" y="362.509" width="21.333" height="21.333" fill="#FFFFFF"/>
	</g>
</g>
<g>
	<g>
		<path d="M334.042,405.73c-15.648-5.194-31.015-11.201-46.037-17.995v-0.491c26.022-12.369,42.62-38.591,42.667-67.403v-32    c0-41.237-33.429-74.667-74.667-74.667s-74.667,33.429-74.667,74.667v32c0.046,28.812,16.645,55.034,42.667,67.403v0.491    c-15.023,6.794-30.389,12.8-46.037,17.995c-38.848,12.949-39.296,40.928-39.296,42.112v64h21.333V448.13    c0-0.576,1.067-14.293,24.704-22.123c18.698-6.109,36.98-13.424,54.731-21.899c3.634-1.816,5.921-5.538,5.899-9.6v-14.389    c-0.003-4.515-2.848-8.54-7.104-10.048c-21.277-7.546-35.513-27.654-35.563-50.229v-32c0-29.455,23.878-53.333,53.333-53.333    s53.333,23.878,53.333,53.333v32c-0.049,22.576-14.285,42.683-35.563,50.229c-4.256,1.508-7.101,5.533-7.104,10.048v14.389    c-0.022,4.062,2.265,7.784,5.899,9.6c17.752,8.457,36.034,15.754,54.731,21.845c23.637,7.883,24.704,21.6,24.704,21.888v64h21.333    v-64C373.338,446.658,372.89,418.679,334.042,405.73z" fill="#FFFFFF"/>
	</g>
</g>
<g>
	<g>
		<path d="M149.325,213.162c-41.237,0.007-74.661,33.442-74.654,74.68v32c0.046,28.812,16.645,55.034,42.667,67.403v0.491    c-15.023,6.794-30.389,12.8-46.037,17.995c-38.848,12.949-39.296,40.928-39.296,42.112v64h21.333V448.13    c0-0.576,1.067-14.293,24.704-22.123c18.698-6.109,36.98-13.424,54.731-21.899c3.634-1.816,5.921-5.538,5.899-9.6v-14.389    c-0.003-4.515-2.848-8.54-7.104-10.048c-21.277-7.546-35.513-27.654-35.563-50.229v-32c-0.01-8.905,2.211-17.672,6.458-25.499    c14.05-25.888,46.427-35.485,72.315-21.435l10.187-18.699C174.025,216.27,161.773,213.16,149.325,213.162z" fill="#FFFFFF"/>
	</g>
</g>
<g>
	<g>
		<rect x="245.338" y="458.509" width="21.333" height="21.333" fill="#FFFFFF"/>
	</g>
</g>
<g>
	<g>
		<rect x="288.004" y="458.509" width="21.333" height="21.333" fill="#FFFFFF"/>
	</g>
</g>
<g>
	<g>
		<rect x="202.671" y="458.509" width="21.333" height="21.333" fill="#FFFFFF"/>
	</g>
</g>
<g>
	<g>
		<path d="M480.004,511.842l0-64c0-1.184-0.448-29.163-39.296-42.112c-15.648-5.194-31.015-11.201-46.037-17.995v-0.491    c26.022-12.369,42.62-38.591,42.667-67.403v-30.251c0.416-35.186-23.425-66.036-57.579-74.507    c-17.849-4.18-36.612-1.648-52.715,7.115l10.187,18.752c11.58-6.27,25.06-8.066,37.877-5.045    c24.426,6.255,41.353,28.475,40.896,53.685v30.251c-0.049,22.576-14.285,42.683-35.563,50.229    c-4.256,1.508-7.101,5.533-7.104,10.048v14.389c-0.022,4.062,2.265,7.784,5.899,9.6c17.752,8.457,36.034,15.754,54.731,21.845    c23.637,7.883,24.704,21.6,24.704,21.888v64H480.004z" fill="#FFFFFF"/>
	</g>
</g>
<g>
	<g>
		<path d="M339.674,122.114L265.007,4.781c-0.699-0.971-1.55-1.822-2.521-2.521c-4.972-3.58-11.905-2.451-15.484,2.521    l-74.667,117.333c-1.091,1.713-1.669,3.702-1.668,5.732c0.002,5.891,4.78,10.665,10.671,10.662h32v64h21.333v-74.667    c0-5.891-4.776-10.667-10.667-10.667h-23.243l55.243-86.795l55.243,86.795h-23.243c-5.891,0-10.667,4.776-10.667,10.667v74.667    h21.333v-64h32c2.031,0.001,4.019-0.578,5.732-1.668C341.373,133.677,342.837,127.084,339.674,122.114z" fill="#FFFFFF"/>
	</g>
</g>
<g>
	<g>
		<path d="M169.007,164.781L94.34,47.447c-0.699-0.971-1.55-1.822-2.521-2.521c-4.972-3.58-11.905-2.451-15.484,2.521L1.668,164.781    c-1.09,1.713-1.669,3.702-1.668,5.732c0.002,5.891,4.78,10.665,10.671,10.662h32v32c0.005,0.662,0.07,1.323,0.192,1.973    c1.121,16.691-5.699,32.932-18.4,43.819c-2.001,2-3.125,4.713-3.125,7.541v32h21.333v-27.733    c15.38-15.37,23.187-36.747,21.333-58.411v-41.856c0-5.891-4.776-10.667-10.667-10.667H30.095l55.243-86.795l55.243,86.795    h-23.243c-5.891,0-10.667,4.776-10.667,10.667v32h21.333v-21.333h32c2.031,0.001,4.019-0.578,5.732-1.668    C170.706,176.343,172.171,169.75,169.007,164.781z" fill="#FFFFFF"/>
	</g>
</g>
<g>
	<g>
		<path d="M510.34,164.781L435.674,47.447c-0.699-0.971-1.55-1.822-2.521-2.521c-4.972-3.58-11.905-2.451-15.484,2.521    l-74.667,117.333c-1.09,1.713-1.669,3.702-1.668,5.732c0.003,5.891,4.78,10.665,10.671,10.662h32v21.333h21.333v-32    c0-5.891-4.776-10.667-10.667-10.667h-23.243l55.243-86.795l55.243,86.795h-23.243c-5.891,0-10.667,4.776-10.667,10.667v41.845    c-1.857,21.668,5.951,43.049,21.333,58.421v27.733h21.333l0-32c-0.02-2.803-1.143-5.485-3.125-7.467    c-12.677-10.869-19.501-27.07-18.421-43.733c0.143-0.702,0.214-1.417,0.213-2.133v-32h32c2.031,0.001,4.019-0.578,5.732-1.668    C512.04,176.343,513.504,169.75,510.34,164.781z" fill="#FFFFFF"/>
	</g>
</g>
<g>
	<g>
		<rect x="469.338" y="362.509" width="21.333" height="21.333" fill="#FFFFFF"/>
	</g>
</g>
<g>
	<g>
		<rect x="469.338" y="319.842" width="21.333" height="21.333" fill="#FFFFFF"/>
	</g>
</g>
<g>
</g>
<g>
</g>
<g>
</g>
<g>
</g>
<g>
</g>
<g>
</g>
<g>
</g>
<g>
</g>
<g>
</g>
<g>
</g>
<g>
</g>
<g>
</g>
<g>
</g>
<g>
</g>
<g>
</g>
</svg>
