<svg xmlns="http://www.w3.org/2000/svg" width="16.471" height="17.917" viewBox="0 0 16.471 17.917">
  <g id="Group_1112" data-name="Group 1112" transform="translate(-566.314 -190)">
    <g id="Group_783" data-name="Group 783" transform="translate(-86.868 -29.418)">
      <path id="Path_8636" data-name="Path 8636" d="M106.987,41.443,105.043,43.1l-2.087,5.172a.756.756,0,0,1-.473.438L92.394,51.9a.756.756,0,0,1-.948-.948l3.186-10.088a.756.756,0,0,1,.439-.474l5.155-2.074,1.674-1.959a.756.756,0,0,1,1.109-.043l4.022,4.022a.756.756,0,0,1-.043,1.109ZM93.819,48.457l5.08-5.08a.756.756,0,0,1,1.069,1.069l-5.08,5.08,6.8-2.147,1.828-4.528L100.5,39.834l-4.532,1.824-2.147,6.8Zm8.7-10.5-.809.947,2.728,2.728.947-.809Z" transform="translate(561.772 183.327)" fill="#fff"/>
      <path id="Path_8637" data-name="Path 8637" d="M.756,188.008H15.715a.756.756,0,1,1,0,1.512H.756a.756.756,0,1,1,0-1.512Z" transform="translate(653.182 47.815)" fill="#fff"/>
    </g>
  </g>
</svg>
