<svg xmlns="http://www.w3.org/2000/svg" width="23.629" height="22.054" viewBox="0 0 23.629 22.054">
  <g id="Group_1112" data-name="Group 1112" transform="translate(-782.913 -189)">
    <path id="Path_8540" data-name="Path 8540" d="M13.575,20a1.575,1.575,0,1,0,1.575,1.575A1.577,1.577,0,0,0,13.575,20Zm0,2.363a.788.788,0,1,1,.788-.788A.788.788,0,0,1,13.575,22.363Z" transform="translate(775.639 176.089)" fill="#fff"/>
    <path id="Path_8541" data-name="Path 8541" d="M27.575,20a1.575,1.575,0,1,0,1.575,1.575A1.577,1.577,0,0,0,27.575,20Zm0,2.363a.788.788,0,1,1,.788-.788A.788.788,0,0,1,27.575,22.363Z" transform="translate(767.152 176.089)" fill="#fff"/>
    <path id="Path_8542" data-name="Path 8542" d="M41.575,20a1.575,1.575,0,1,0,1.575,1.575A1.577,1.577,0,0,0,41.575,20Zm0,2.363a.788.788,0,1,1,.788-.788A.788.788,0,0,1,41.575,22.363Z" transform="translate(758.666 176.089)" fill="#fff"/>
    <path id="Path_8543" data-name="Path 8543" d="M21.266,2H2.363A2.4,2.4,0,0,0,0,4.363v13a2.4,2.4,0,0,0,2.363,2.363H5.513V23.66a.394.394,0,0,0,.252.367.386.386,0,0,0,.142.026.393.393,0,0,0,.291-.129l3.821-4.2H21.266a2.4,2.4,0,0,0,2.363-2.363v-13A2.4,2.4,0,0,0,21.266,2Zm1.575,15.359a1.6,1.6,0,0,1-1.575,1.575H10.7L12.113,17.3a.394.394,0,0,0-.6-.514L9.554,19.063h0L6.3,22.641V19.328a.393.393,0,0,0-.394-.394H2.363A1.6,1.6,0,0,1,.788,17.359v-13A1.6,1.6,0,0,1,2.363,2.788h18.9a1.6,1.6,0,0,1,1.575,1.575Z" transform="translate(782.913 187)" fill="#fff"/>
  </g>
</svg>
