<svg xmlns="http://www.w3.org/2000/svg" width="22.867" height="22.766" viewBox="0 0 22.867 22.766">
  <path id="Path_8557" data-name="Path 8557" d="M8.813,2.513a10.509,10.509,0,0,0-6.031,8.544H1.275A12.129,12.129,0,0,1,13.336,0h.7L10.221,3.819Zm6.332-.8a1.457,1.457,0,0,1,2.111,0l6.433,6.433a1.457,1.457,0,0,1,0,2.111L11.628,22.314a1.457,1.457,0,0,1-2.111,0L3.084,15.881a1.457,1.457,0,0,1,0-2.111Zm-4.624,19.6L22.584,9.247,16.151,2.814,4.089,14.876Z" transform="translate(-1.275)" fill="#fff"/>
</svg>
