<svg id="Group_781" data-name="Group 781" xmlns="http://www.w3.org/2000/svg" width="22" height="22" viewBox="0 0 22 22">
  <g id="Group_744" data-name="Group 744" transform="translate(0)">
    <g id="Group_743" data-name="Group 743">
      <path id="Path_8559" data-name="Path 8559" d="M9.023,0a9.019,9.019,0,0,1,6.939,14.786l5.784,5.745a.859.859,0,1,1-1.211,1.219L14.743,16a9.018,9.018,0,0,1-10.137.9.859.859,0,0,1,.843-1.5,7.3,7.3,0,1,0-2.775-2.759.859.859,0,1,1-1.493.852A9.026,9.026,0,0,1,9.023,0Z" transform="translate(0)" fill="#fff"/>
    </g>
  </g>
  <rect id="Rectangle_893" data-name="Rectangle 893" width="8" height="2" rx="1" transform="translate(5 8)" fill="#fff"/>
</svg>
