<svg xmlns="http://www.w3.org/2000/svg" width="19.272" height="19.27" viewBox="0 0 19.272 19.27">
  <path id="add-group" d="M8.116,13.133a7.147,7.147,0,0,1,1.5-.8A3.832,3.832,0,0,1,8.371,9.8a5.666,5.666,0,0,0-7.185-.588A.753.753,0,1,1,.325,7.981a7.155,7.155,0,0,1,1.5-.8A3.839,3.839,0,1,1,7,7.172q.158.061.313.129a7.149,7.149,0,0,1,1.326.762,3.838,3.838,0,1,1,6.159,4.255,7.239,7.239,0,0,1,4.372,4.5,2.258,2.258,0,0,1-2.15,2.95H10.466a.753.753,0,0,1,0-1.506h6.549a.753.753,0,0,0,.717-.984,5.808,5.808,0,0,0-5.518-3.929,5.63,5.63,0,0,0-3.237,1.015.753.753,0,1,1-.861-1.235ZM4.406,2.006A2.333,2.333,0,1,0,6.74,4.34,2.336,2.336,0,0,0,4.406,2.006ZM12.2,7.158A2.333,2.333,0,1,0,14.53,9.491,2.336,2.336,0,0,0,12.2,7.158ZM0,16.2a.753.753,0,0,0,.753.753h2.07v2.07a.753.753,0,1,0,1.506,0v-2.07H6.4a.753.753,0,0,0,0-1.506H4.331v-2.07a.753.753,0,0,0-1.506,0v2.07H.755A.753.753,0,0,0,0,16.2Zm0,0" transform="translate(-0.003 -0.501)"/>
</svg>
