<svg xmlns="http://www.w3.org/2000/svg" width="30.454" height="30.451" viewBox="0 0 30.454 30.451">
  <g id="Group_1114" data-name="Group 1114" transform="translate(-9.107 -54.71)">
    <g id="call" transform="translate(9.107 54.71)">
      <g id="Group_1113" data-name="Group 1113" transform="translate(0 0)">
        <g id="Group_1112" data-name="Group 1112">
          <g id="Group_1115" data-name="Group 1115">
            <path id="Path_8865" data-name="Path 8865" d="M31.366,25.234,25.2,21.123a1.8,1.8,0,0,0-2.409.391L21,23.823a.767.767,0,0,1-.984.207l-.342-.188a20.641,20.641,0,0,1-5.379-4.225,20.725,20.725,0,0,1-4.225-5.379L9.88,13.9a.768.768,0,0,1,.2-.988l2.307-1.795A1.8,1.8,0,0,0,12.782,8.7L8.671,2.541A1.79,1.79,0,0,0,6.259,2L3.681,3.546A3.636,3.636,0,0,0,2.023,5.7c-.928,3.382-.23,9.218,8.368,17.817,6.839,6.839,11.931,8.678,15.431,8.678a8.991,8.991,0,0,0,2.385-.312,3.632,3.632,0,0,0,2.152-1.658l1.55-2.576A1.79,1.79,0,0,0,31.366,25.234Zm-.332,1.893L29.488,29.7a2.623,2.623,0,0,1-1.548,1.2c-3.122.857-8.576.147-16.831-8.107S2.145,9.089,3,5.966a2.627,2.627,0,0,1,1.2-1.55L6.781,2.87a.776.776,0,0,1,1.047.235l2.233,3.352,1.874,2.811a.781.781,0,0,1-.169,1.045L9.458,12.109a1.776,1.776,0,0,0-.47,2.28l.183.333a21.529,21.529,0,0,0,4.4,5.613,21.551,21.551,0,0,0,5.612,4.4l.333.184a1.776,1.776,0,0,0,2.28-.47l1.795-2.308a.782.782,0,0,1,1.045-.169L30.8,26.08A.776.776,0,0,1,31.034,27.127Z" transform="translate(-1.711 -1.741)" fill="#fff"/>
            <path id="Path_8866" data-name="Path 8866" d="M484.029,119.615a8.637,8.637,0,0,1,8.627,8.627.507.507,0,1,0,1.015,0,9.653,9.653,0,0,0-9.642-9.642.507.507,0,1,0,0,1.015Z" transform="translate(-466.773 -114.538)" fill="#fff"/>
          </g>
          <path id="Path_8867" data-name="Path 8867" d="M484.029,207.208a5.589,5.589,0,0,1,5.582,5.582.507.507,0,1,0,1.015,0,6.6,6.6,0,0,0-6.6-6.6.507.507,0,1,0,0,1.015Z" transform="translate(-466.773 -199.086)" fill="#fff"/>
          <path id="Path_8868" data-name="Path 8868" d="M484.029,294.8a2.541,2.541,0,0,1,2.537,2.537.507.507,0,0,0,1.015,0,3.556,3.556,0,0,0-3.552-3.552.507.507,0,0,0,0,1.015Z" transform="translate(-466.773 -283.634)" fill="#fff"/>
        </g>
      </g>
    </g>
  </g>
</svg>
