<svg id="contract" xmlns="http://www.w3.org/2000/svg" width="56.046" height="56.035" viewBox="0 0 56.046 56.035">
  <path id="Path_8670" data-name="Path 8670" d="M225.6,98.1a2.8,2.8,0,0,0-5.137-.673l-.467.813a.934.934,0,0,0-1.27.337l-2.372,4.044-.813-.467a.933.933,0,1,0-.934,1.616l.813.467-7.939,13.757-1.961,5.24-.934,1.746a2.8,2.8,0,0,0,.15,3.026l-2.1,2.577-.588-1.475a1.868,1.868,0,0,0-3.334-.262l-.336.57-.317-3.736a1.868,1.868,0,0,0-3.633-.439l-2.3,6.892a.934.934,0,0,0,.588,1.177.808.808,0,0,0,.29.074.934.934,0,0,0,.887-.635l2.288-6.892.327,3.791a1.868,1.868,0,0,0,3.465.8l.346-.57.579,1.467a1.868,1.868,0,0,0,3.194.476l2.176-2.755a2.876,2.876,0,0,0,.738.093,2.8,2.8,0,0,0,2.437-1.383l.934-1.56,3.558-4.324,8.022-13.925.813.467a.936.936,0,0,1,.346,1.28l-3.736,6.472a.927.927,0,1,0,1.578.971l3.736-6.472a2.8,2.8,0,0,0-1.027-3.829l-.813-.467,2.335-4.044a.934.934,0,0,0-.336-1.27l.467-.813a2.8,2.8,0,0,0,.28-2.167Zm-3.521.261a.934.934,0,0,1,.57-.439.981.981,0,0,1,.71.093.935.935,0,0,1,.439.57.981.981,0,0,1-.094.71l-.467.813-1.625-.934Zm-12.729,26.076-.467-.271-1.382-.8,1.326-3.549,2.942,1.7Zm-2.8,2.7a.933.933,0,0,1-.28-1.224l.467-.812,1.625.934-.467.8a.934.934,0,0,1-1.345.3Zm6.285-7.154-3.231-1.868,7.472-12.945,3.231,1.868Zm8.405-14.56L218,103.549l1.868-3.231,3.231,1.868Zm0,0" transform="translate(-169.653 -84.814)" fill="#0e4cae"/>
  <path id="Path_8671" data-name="Path 8671" d="M74.191,356.821l-3.306,3.3-1.98-1.98a.934.934,0,1,0-1.317,1.326l1.98,1.98a1.883,1.883,0,0,0,2.643,0l3.3-3.306a.934.934,0,0,0-1.317-1.317Zm0,0" transform="translate(-59.454 -314.972)" fill="#0e4cae"/>
  <path id="Path_8672" data-name="Path 8672" d="M32,319.979a7.938,7.938,0,0,0,15.877,0,.934.934,0,0,0-1.868,0,6.071,6.071,0,1,1-2.428-4.856.934.934,0,0,0,1.121-1.494A7.939,7.939,0,0,0,32,319.979Zm0,0" transform="translate(-28.264 -275.618)" fill="#0e4cae"/>
  <path id="Path_8673" data-name="Path 8673" d="M97.216,49.907a.934.934,0,1,0,0-1.868H72.934a.934.934,0,0,0-.934.934v3.736a.934.934,0,0,0,.934.934H97.216a.934.934,0,1,0,0-1.868H73.868V49.907Zm0,0" transform="translate(-63.595 -42.436)" fill="#0e4cae"/>
  <path id="Path_8674" data-name="Path 8674" d="M96.934,112.039a.934.934,0,1,0,0,1.868h18.679a.934.934,0,1,0,0-1.868Zm0,0" transform="translate(-84.793 -98.964)" fill="#0e4cae"/>
  <path id="Path_8675" data-name="Path 8675" d="M149.481,168.039H128.934a.934.934,0,1,0,0,1.868h20.547a.934.934,0,1,0,0-1.868Zm0,0" transform="translate(-113.057 -148.427)" fill="#0e4cae"/>
  <path id="Path_8676" data-name="Path 8676" d="M76.547,216.973a.934.934,0,0,0-.934-.934H56.934a.934.934,0,1,0,0,1.868H75.613A.934.934,0,0,0,76.547,216.973Zm0,0" transform="translate(-49.462 -190.823)" fill="#0e4cae"/>
  <path id="Path_8677" data-name="Path 8677" d="M255.472,216.039h-6.538a.934.934,0,1,0,0,1.868h6.538a.934.934,0,1,0,0-1.868Zm0,0" transform="translate(-219.048 -190.823)" fill="#0e4cae"/>
  <path id="Path_8678" data-name="Path 8678" d="M66.273,257.907a.934.934,0,1,0,0-1.868H56.934a.934.934,0,1,0,0,1.868Zm0,0" transform="translate(-49.462 -226.153)" fill="#0e4cae"/>
  <path id="Path_8679" data-name="Path 8679" d="M168.934,257.907h6.538a.934.934,0,1,0,0-1.868h-6.538a.934.934,0,1,0,0,1.868Zm0,0" transform="translate(-148.387 -226.153)" fill="#0e4cae"/>
  <path id="Path_8680" data-name="Path 8680" d="M42.027,43a.934.934,0,0,0-.934.934v9.339a.934.934,0,0,1-.934.934H2.8a.934.934,0,0,1-.934-.934V2.841A.934.934,0,0,1,2.8,1.907H40.159a.934.934,0,0,1,.934.934V20.38a.934.934,0,0,0,1.868,0V2.841a2.8,2.8,0,0,0-2.8-2.8H2.8A2.8,2.8,0,0,0,0,2.841V53.273a2.8,2.8,0,0,0,2.8,2.8H40.159a2.8,2.8,0,0,0,2.8-2.8V43.934A.934.934,0,0,0,42.027,43Zm0,0" transform="translate(0 -0.039)" fill="#0e4cae"/>
</svg>
