<svg xmlns="http://www.w3.org/2000/svg" width="972.837" height="481.212" viewBox="0 0 972.837 481.212">
  <g id="Group_185" data-name="Group 185" transform="translate(-86.164 -353.499)">
    <path id="Path_13" data-name="Path 13" d="M104.713,367.32c-.216,6.262-3.29,9.627-7.976,9.623-1.03,0-2.059-.972-3.089-1.5.771-.871,1.42-2.311,2.335-2.507,2.774-.6,4.449-1.62,4.565-4.827.043-1.189,1.536-2.325,2.367-3.486Z" fill="#fff"/>
    <path id="Path_14" data-name="Path 14" d="M86.887,367.179c-2.21-9.69.422-13.127,10.98-13.68-1.543,2.011-2.307,4.029-3.362,4.194-3.579.562-4.566,2.529-4.761,5.792C89.679,364.566,88.193,365.562,86.887,367.179Z" fill="#fff"/>
    <g id="Group_179" data-name="Group 179" transform="translate(-65.779 272.565)">
      <path id="Path_1" data-name="Path 1" d="M775.044,1052.3c-17.084,15.055-28,31.163-29.378,47.642l-.107-.809c.2,31.941,14.187,65.015,29.278,85.376l17.787-30.811C777.6,1119.949,768.634,1081.956,775.044,1052.3Z" transform="translate(-527.585 -637.545)" fill="#414141" fill-rule="evenodd"/>
      <path id="Path_2" data-name="Path 2" d="M810.839,1025.507c-2.331,24.8.553,51.484,8.935,77.576q2.78,8.645,5.765,16.754l24.387-42.234c-5.886-24.479-8.718-49.121-8.157-71.61A282.5,282.5,0,0,0,810.839,1025.507Z" transform="translate(-550.412 -621.158)" fill="#414141" fill-rule="evenodd"/>
      <path id="Path_3" data-name="Path 3" d="M907.77,974.229c-7.97,3.38-15.758,6.922-23.284,10.606.131,8.1.57,16.237,1.288,24.319a316.107,316.107,0,0,0,4.456,31.589l28.2-48.844c-.563-7.178-.9-14.429-.965-21.7Q912.555,972.2,907.77,974.229Z" transform="translate(-576.75 -608.491)" fill="#414141" fill-rule="evenodd"/>
      <path id="Path_4" data-name="Path 4" d="M1040.133,650.7c-6.674.49-13.676,1.191-20.807,2.1a58.84,58.84,0,1,0-63.49,14.482c-13.367,4.925-24.583,10.926-31.649,18.063-8.141,8.208-22.826,27.248-29.119,48.068,23.209-31.641,92.8-50.255,155.6-56.581a70.355,70.355,0,0,1-10.539-26.135Z" transform="translate(-580.495 -461)" fill="#414141" fill-rule="evenodd"/>
      <path id="Path_5" data-name="Path 5" d="M1139.526,693.1c-5.82.188-11.879.415-18.119.686a58.826,58.826,0,1,0-76.711,5.832c-84.288,9.657-176,32.8-215.693,90.822-8.452,12.347-12.412,20.188-16.516,35.37,32.937-57.98,153.654-81.005,218.542-90.439,10.464-1.523,70.717-7.572,116.281-11.968a70.242,70.242,0,0,1-7.784-30.3Z" transform="translate(-551.27 -475.169)" fill="#638fc9" fill-rule="evenodd"/>
      <path id="Path_6" data-name="Path 6" d="M1220.765,755.281a58.821,58.821,0,1,0-80.347.805,1313.879,1313.879,0,0,0-155.087,17.581c-56.906,10.084-107.444,25.82-139.712,40.249-42.812,19.144-80.272,45.224-99.5,73.761-12.061,17.889-18.844,38.224-15.474,60.759,3.059-36.5,52.879-71.2,112.929-96.656,123.648-52.4,337.738-65.556,467.195-63.04l-52.272-29.681A295.547,295.547,0,0,0,1220.765,755.281Z" transform="translate(-522 -496.538)" fill="#4b74b5" fill-rule="evenodd"/>
    </g>
    <text id="BoardSheet" transform="translate(291 754.085)" fill="#4b74b5" font-size="128" font-family="CenturySchoolbookBT-BoldItalic, CentSchbook BT" font-weight="700" font-style="italic"><tspan x="0" y="0">BoardSheet</tspan></text>
    <text id="Simplified_Board_Management" data-name="Simplified Board Management" transform="translate(372 815.711)" fill="#414141" font-size="51" font-family="Manjari-Regular, Manjari"><tspan x="0" y="0">Simplified Board Management</tspan></text>
  </g>
</svg>
