<?xml version="1.0" encoding="utf-8"?>
<!-- Generator: Adobe Illustrator 16.0.0, SVG Export Plug-In . SVG Version: 6.00 Build 0)  -->
<!DOCTYPE svg PUBLIC "-//W3C//DTD SVG 1.1//EN" "http://www.w3.org/Graphics/SVG/1.1/DTD/svg11.dtd">
<svg version="1.1" id="Layer_1" xmlns="http://www.w3.org/2000/svg" xmlns:xlink="http://www.w3.org/1999/xlink" x="0px" y="0px"
	 width="288.162px" height="184.587px" viewBox="0 0 288.162 184.587" style="enable-background:new 0 0 288.162 184.587;"
	 xml:space="preserve">
<g>
	<defs>
		<rect id="SVGID_1_" width="288.162" height="184.587"/>
	</defs>
	<clipPath id="SVGID_2_">
		<use xlink:href="#SVGID_1_"  style="overflow:visible;"/>
	</clipPath>
	<path style="clip-path:url(#SVGID_2_);fill:#875A7B;" d="M211.498,0H40.041C18.019,0,0,18.019,0,40.042v28.571
		c0,42.166,34.498,76.665,76.664,76.665h76.688c24.558,0,48.4,8.264,67.691,23.461l20.118,15.849l-7.25-29.603
		c-1.209-4.94,2.531-9.707,7.617-9.707h19.558c14.892,0,27.075-12.184,27.075-27.075V76.664C288.162,34.499,253.663,0,211.498,0"/>
	<path style="clip-path:url(#SVGID_2_);fill:#FFFFFF;" d="M71.412,94.661c-3.244,0-4.864-0.405-4.864-1.217L65.4,69.016
		l-6.668,24.732c-0.145,0.486-1.385,0.73-3.716,0.73c-2.332,0-3.535-0.223-3.607-0.672l-6.886-25.036l-0.765,24.307
		c-0.037,0.608-0.73,1.025-2.077,1.248c-1.349,0.225-2.469,0.335-3.361,0.335c-0.893,0-1.759-0.061-2.596-0.183
		c-1.749-0.283-2.605-0.792-2.569-1.523l1.257-39.594c0-0.975,2.222-1.463,6.667-1.463c1.312,0,2.915,0.112,4.81,0.336
		c1.894,0.223,2.951,0.66,3.17,1.309l6.121,19.188l5.356-19.25c0.328-1.055,2.842-1.583,7.542-1.583c1.348,0,2.96,0.112,4.836,0.336
		c1.877,0.223,2.815,0.618,2.815,1.186l1.585,39.962c0,0.447-0.711,0.771-2.131,0.976C73.762,94.561,72.505,94.661,71.412,94.661"/>
	<path style="clip-path:url(#SVGID_2_);fill:#FFFFFF;" d="M103.111,92.956c-2.296,1.502-5.247,2.253-8.855,2.253
		c-3.606,0-6.649-1.37-9.126-4.111c-2.478-2.741-3.717-6.538-3.717-11.392c0-4.852,1.193-8.761,3.58-11.725
		c2.386-2.964,5.401-4.448,9.045-4.448c3.642,0,6.457,1.036,8.444,3.108c1.985,2.07,2.978,4.588,2.978,7.553
		c0,6.578-3.388,9.868-10.165,9.868h-3.771c0,1.219,0.3,2.061,0.902,2.528c0.601,0.469,1.484,0.7,2.65,0.7
		c2.55,0,4.974-0.648,7.269-1.949c0.036-0.04,0.2,0.245,0.492,0.854c0.875,1.745,1.312,3.218,1.312,4.416
		C104.149,91.809,103.802,92.59,103.111,92.956 M96.279,75.351c0-1.706-0.748-2.558-2.241-2.558c-0.693,0-1.284,0.233-1.776,0.7
		c-0.492,0.468-0.738,1.148-0.738,2.042v1.888h2.951C95.678,77.423,96.279,76.732,96.279,75.351"/>
	<path style="clip-path:url(#SVGID_2_);fill:#FFFFFF;" d="M129.671,92.956c-2.296,1.502-5.247,2.253-8.854,2.253
		s-6.65-1.37-9.127-4.111c-2.478-2.741-3.717-6.538-3.717-11.392c0-4.852,1.193-8.761,3.58-11.725
		c2.386-2.964,5.401-4.448,9.045-4.448c3.643,0,6.457,1.036,8.444,3.108c1.985,2.07,2.979,4.588,2.979,7.553
		c0,6.578-3.389,9.868-10.166,9.868h-3.771c0,1.219,0.3,2.061,0.902,2.528c0.601,0.469,1.484,0.7,2.65,0.7
		c2.55,0,4.974-0.648,7.269-1.949c0.036-0.04,0.2,0.245,0.492,0.854c0.875,1.745,1.312,3.218,1.312,4.416
		C130.709,91.809,130.362,92.59,129.671,92.956 M122.839,75.351c0-1.706-0.748-2.558-2.241-2.558c-0.693,0-1.284,0.233-1.776,0.7
		c-0.492,0.468-0.738,1.148-0.738,2.042v1.888h2.951C122.238,77.423,122.839,76.732,122.839,75.351"/>
	<path style="clip-path:url(#SVGID_2_);fill:#FFFFFF;" d="M148.142,94.234c0,0.488-1.529,0.731-4.59,0.731
		c-3.643-0.163-5.465-0.427-5.465-0.792V72.609h-2.788c-0.729,0-1.092-1.4-1.092-4.204c0-0.73,0.063-1.623,0.19-2.679
		c0.128-1.055,0.392-1.585,0.793-1.585h2.897v-5.36c0-0.812,1.538-1.217,4.618-1.217c3.078,0,4.618,0.324,4.618,0.974v3.899
		l0.055,1.704h4.646c0.62,0,0.93,1.423,0.93,4.264c0,2.845-0.31,4.265-0.93,4.265h-3.881V94.234z"/>
	<path style="clip-path:url(#SVGID_2_);fill:#FFFFFF;" d="M153.826,47.544c0-0.227,0.89-0.444,2.669-0.649
		c1.779-0.206,3.241-0.308,4.386-0.308c4.54,0,6.913,0.661,7.118,1.984l5.275,30.089l4.97-30.089
		c0.246-1.323,2.781-1.984,7.609-1.984c1.186,0,2.677,0.093,4.477,0.273c1.8,0.184,2.7,0.388,2.7,0.617l-10.86,45.271
		c-0.163,0.729-1.369,1.207-3.618,1.436c-3.478,0.411-6.637,0.489-9.479,0.24c-2.843-0.251-4.346-0.695-4.51-1.334L153.826,47.544z"
		/>
	<path style="clip-path:url(#SVGID_2_);fill:#FFFFFF;" d="M216.836,48.023c0-0.912,2.219-1.367,6.657-1.367s6.656,0.455,6.656,1.367
		v31.389c0,4.652-1.493,8.446-4.479,11.387c-2.983,2.941-7.105,4.41-12.361,4.41c-5.258,0-9.531-1.514-12.824-4.547
		c-3.293-3.032-4.938-7.122-4.938-12.276V48.092c0-0.912,2.219-1.368,6.656-1.368c4.439,0,6.657,0.456,6.657,1.368v30.842
		c0,0.912,0.43,1.641,1.289,2.189c0.898,0.546,1.841,0.819,2.822,0.819s1.87-0.249,2.668-0.752c0.799-0.5,1.196-1.252,1.196-2.256
		V48.023z"/>
	<path style="clip-path:url(#SVGID_2_);fill:#FFFFFF;" d="M255.242,65.667c0.777,0,1.167,1.596,1.167,4.787
		c0,0.957-0.092,2.086-0.276,3.385c-0.184,1.298-0.521,1.949-1.012,1.949h-7.792v6.839h11.288c0.695,0,1.165,1.003,1.412,3.008
		c0.123,0.867,0.183,1.791,0.183,2.77c0,0.981-0.123,2.246-0.365,3.795c-0.248,1.551-0.657,2.325-1.229,2.325h-20.981
		c-1.557,0-2.332-0.706-2.332-2.119V48.434c0-1.186,0.469-1.778,1.411-1.778h21.965c0.859,0,1.289,2.017,1.289,6.052
		s-0.43,6.052-1.289,6.052h-11.351v6.907H255.242z"/>
</g>
</svg>
