<svg xmlns="http://www.w3.org/2000/svg" width="17" height="30.813" viewBox="0 0 17 30.813">
  <g id="microphone" transform="translate(-13)">
    <path id="Path_8517" data-name="Path 8517" d="M29.469,28a.531.531,0,0,0-.531.531v3.188a7.438,7.438,0,0,1-14.875,0V28.531a.531.531,0,0,0-1.062,0v3.188a8.5,8.5,0,0,0,7.969,8.473v2.683H18.313a.531.531,0,0,0,0,1.063h6.375a.531.531,0,0,0,0-1.062H22.031V40.192A8.5,8.5,0,0,0,30,31.719V28.531A.531.531,0,0,0,29.469,28Z" transform="translate(0 -13.125)" fill="#fff"/>
    <path id="Path_8518" data-name="Path 8518" d="M23.844,24.438a5.851,5.851,0,0,0,5.844-5.844V5.844A5.844,5.844,0,0,0,18,5.844v12.75A5.851,5.851,0,0,0,23.844,24.438ZM19.063,5.844a4.781,4.781,0,0,1,9.563,0v12.75a4.781,4.781,0,0,1-9.562,0Z" transform="translate(-2.344)" fill="#fff"/>
  </g>
</svg>
