<svg xmlns="http://www.w3.org/2000/svg" width="25.69" height="25.703" viewBox="0 0 25.69 25.703">
  <g id="Group_1113" data-name="Group 1113" transform="translate(-221.472 -755.471)">
    <g id="chat" transform="translate(221.355 755.471)">
      <g id="Group_510" data-name="Group 510" transform="translate(0.117)">
        <path id="Path_8308" data-name="Path 8308" d="M22.046,3.767A12.848,12.848,0,0,0,3.027,21,4.822,4.822,0,0,1,1,23.34a1.2,1.2,0,0,0,.344,2.26,6.114,6.114,0,0,0,.91.07h0a8.309,8.309,0,0,0,4.617-1.5A12.852,12.852,0,0,0,22.046,3.767ZM21.018,20.908A11.4,11.4,0,0,1,7.192,22.678a.723.723,0,0,0-.813.048,6.92,6.92,0,0,1-4.031,1.48,7.313,7.313,0,0,0,2.2-3.041.732.732,0,0,0-.124-.775,11.395,11.395,0,1,1,16.592.517Z" transform="translate(-0.117)" fill="#fff"/>
        <path id="Path_8309" data-name="Path 8309" d="M136.773,160H126.01a.727.727,0,1,0,0,1.453h10.763a.727.727,0,1,0,0-1.453Z" transform="translate(-118.547 -151.389)" fill="#fff"/>
        <path id="Path_8310" data-name="Path 8310" d="M136.773,225.3H126.01a.727.727,0,0,0,0,1.453h10.763a.727.727,0,1,0,0-1.453Z" transform="translate(-118.547 -213.175)" fill="#fff"/>
        <path id="Path_8311" data-name="Path 8311" d="M136.773,290.6H126.01a.727.727,0,1,0,0,1.453h10.763a.727.727,0,1,0,0-1.453Z" transform="translate(-118.547 -274.961)" fill="#fff"/>
      </g>
    </g>
  </g>
</svg>
