<svg xmlns="http://www.w3.org/2000/svg" width="26.781" height="26.605" viewBox="0 0 26.781 26.605">
  <g id="newspaper" transform="translate(0 -1.789)">
    <path id="Path_8018" data-name="Path 8018" d="M26.36,1.79H7.1a.421.421,0,0,0-.421.421V3.894H3.55a.421.421,0,0,0-.417.477L3.3,5.58H.421a.421.421,0,0,0-.4.539L6.426,28.09a.421.421,0,0,0,.4.3H26.36a.421.421,0,0,0,.421-.421V2.211A.422.422,0,0,0,26.36,1.79ZM6.674,4.737V24.25L4.033,4.737ZM3.411,6.423l2.1,15.53L.983,6.423ZM25.939,27.552H7.516V2.633H25.939V27.552h0ZM14.885,5.959h-6.7v-1.9h6.7v1.9Zm10.424,0h-6.7v-1.9h6.7v1.9Zm-9.991-.948a1.411,1.411,0,1,1,1.41,1.411A1.411,1.411,0,0,1,15.317,5.012Zm9,10.27h-5.7V8.88h5.7v6.4ZM15.885,9.821H8.873v-.7h7.012ZM8.873,11.814h7.012v.7H8.873Zm.079,2.757h7.012v.7H8.952Zm-.079,2.777H24.316v.7H8.873Zm0,2.772H24.316v.7H8.873Zm0,2.737H24.316v.7H8.873Z" transform="translate(0)" fill="#3059c9"/>
  </g>
</svg>
