<svg xmlns="http://www.w3.org/2000/svg" width="42.774" height="56.663" viewBox="0 0 42.774 56.663">
  <g id="Group_1112" data-name="Group 1112" transform="translate(-1135.758 -545.057)">
    <g id="cv" transform="translate(1072.995 545.057)">
      <path id="Path_8112" data-name="Path 8112" d="M104.707,35.026a.83.83,0,0,0,.83-.83V7.324a1.989,1.989,0,0,0-1.987-1.987H99.894V1.987A1.989,1.989,0,0,0,97.907,0H64.75a1.989,1.989,0,0,0-1.987,1.987V21.582a.83.83,0,0,0,1.66,0V14.969h3.783a7.858,7.858,0,0,0,13.642,0H98.234V49.34a.332.332,0,0,1-.327.327H64.75a.332.332,0,0,1-.327-.327V25.676a.83.83,0,0,0-1.66,0V49.34a1.989,1.989,0,0,0,1.987,1.987h3.656v3.349a1.989,1.989,0,0,0,1.987,1.987H103.55a1.989,1.989,0,0,0,1.987-1.987V38.4a.83.83,0,0,0-1.66,0V54.676a.332.332,0,0,1-.327.327H70.393a.332.332,0,0,1-.327-.327V51.327H97.907a1.989,1.989,0,0,0,1.987-1.987V7h3.656a.332.332,0,0,1,.327.327V34.2A.83.83,0,0,0,104.707,35.026Zm-33.1-18.791a3.541,3.541,0,0,1,3.453-3.242h.04a3.541,3.541,0,0,1,3.476,3.153,6.187,6.187,0,0,1-6.969.09ZM73.6,9.858a1.476,1.476,0,1,1,1.493,1.475h-.028A1.478,1.478,0,0,1,73.6,9.858Zm6.349,4.977a5.29,5.29,0,0,0-2.5-2.925A3.136,3.136,0,1,0,72.7,11.9a5.218,5.218,0,0,0-2.49,3.066,6.206,6.206,0,1,1,9.735-.135Zm2.616-1.525a7.866,7.866,0,1,0-15.072,0H64.423V1.987a.332.332,0,0,1,.327-.327H97.907a.332.332,0,0,1,.327.327V13.31Z" fill="#3059c9"/>
      <path id="Path_8113" data-name="Path 8113" d="M109.207,217.209h13.021a.83.83,0,0,0,0-1.66H109.207A.83.83,0,0,0,109.207,217.209Z" transform="translate(-40.591 -191.699)" fill="#3059c9"/>
      <path id="Path_8114" data-name="Path 8114" d="M109.207,263.6h25.14a.83.83,0,0,0,0-1.66h-25.14A.83.83,0,0,0,109.207,263.6Z" transform="translate(-40.591 -232.956)" fill="#3059c9"/>
      <path id="Path_8115" data-name="Path 8115" d="M276.032,64.549H268.52a.83.83,0,0,0,0,1.66h7.512A.83.83,0,0,0,276.032,64.549Z" transform="translate(-182.276 -57.407)" fill="#3059c9"/>
      <path id="Path_8116" data-name="Path 8116" d="M109.207,341.209h13.021a.83.83,0,0,0,0-1.66H109.207A.83.83,0,0,0,109.207,341.209Z" transform="translate(-40.591 -301.978)" fill="#3059c9"/>
      <path id="Path_8117" data-name="Path 8117" d="M109.207,387.6h25.14a.83.83,0,0,0,0-1.66h-25.14A.83.83,0,0,0,109.207,387.6Z" transform="translate(-40.591 -343.236)" fill="#3059c9"/>
    </g>
  </g>
</svg>
