<?xml version="1.0" encoding="utf-8"?>
<!-- Generator: Adobe Illustrator 16.0.0, SVG Export Plug-In . SVG Version: 6.00 Build 0)  -->
<!DOCTYPE svg PUBLIC "-//W3C//DTD SVG 1.1//EN" "http://www.w3.org/Graphics/SVG/1.1/DTD/svg11.dtd">
<svg version="1.1" id="Layer_1" xmlns="http://www.w3.org/2000/svg" xmlns:xlink="http://www.w3.org/1999/xlink" x="0px" y="0px"
	 width="960px" height="560px" viewBox="0 0 960 560" style="enable-background:new 0 0 960 560;" xml:space="preserve">
<path d="M576.023,323.161h-42.658v42.71h42.658V323.161z M650.713,323.161h-42.658v42.71h42.658V323.161z M501.385,323.161h-42.658
	v42.71h42.658V323.161z M352.055,323.161h-42.723v42.71h42.723V323.161z M426.688,323.161h-42.658v42.71h42.658V323.161z
	 M640.035,67.148V24.496h-21.303v42.652H341.372V24.496h-21.355v42.652h-95.993v469.355h512.006V67.148H640.035z M714.727,515.2
	H245.384v-320.02h469.342V515.2z M714.727,173.819H245.384V88.51h74.632v21.296h21.355V88.51h277.361v21.296h21.303V88.51h74.691
	V173.819z M714.727,173.819"/>
</svg>
