<?xml version="1.0" encoding="utf-8"?>
<!-- Generator: Adobe Illustrator 16.0.0, SVG Export Plug-In . SVG Version: 6.00 Build 0)  -->
<!DOCTYPE svg PUBLIC "-//W3C//DTD SVG 1.1//EN" "http://www.w3.org/Graphics/SVG/1.1/DTD/svg11.dtd">
<svg version="1.1" id="Layer_1" xmlns="http://www.w3.org/2000/svg" xmlns:xlink="http://www.w3.org/1999/xlink" x="0px" y="0px"
	 width="960px" height="560px" viewBox="0 0 960 560" style="enable-background:new 0 0 960 560;" xml:space="preserve">
<g>
	<path d="M534.965,354.336h-37.742v37.743h37.742V354.336z M468.921,222.208h-37.737v37.749h37.737V222.208z M534.965,288.252
		h-37.742v37.789h37.742V288.252z M534.965,222.208h-37.742v37.749h37.742V222.208z M601.049,222.208h-37.742v37.749h37.742V222.208
		z M601.049,288.252h-37.742v37.789h37.742V288.252z M468.921,288.252h-37.737v37.789h37.737V288.252z M402.836,222.208h-37.743
		v37.749h37.743V222.208z M336.803,288.252h-37.8v37.789h37.8V288.252z M402.836,354.336h-37.743v37.743h37.743V354.336z
		 M336.803,354.336h-37.8v37.743h37.8V354.336z M402.836,288.252h-37.743v37.789h37.743V288.252z M468.921,354.336h-37.737v37.743
		h37.737V354.336z M591.603,61.737V24h-18.849v37.737H327.351V24h-18.895v37.737h-84.933v415.274h453.012V61.737H591.603z
		 M657.688,458.164H242.423V175.018h415.264V458.164z M657.688,156.117H242.423v-75.48h66.033v18.842h18.895V80.637h245.403v18.842
		h18.849V80.637h66.085V156.117z M657.688,156.117"/>
</g>
<rect x="716.674" y="120.725" width="18.85" height="414.089"/>
<rect x="282.511" y="517.151" width="453.013" height="18.849"/>
</svg>
