<svg xmlns="http://www.w3.org/2000/svg" width="22.426" height="22.625" viewBox="0 0 22.426 22.625">
  <path id="Path_8557" data-name="Path 8557" d="M11.32,32.323a1.442,1.442,0,0,0-2.088,0L2.866,38.687a1.442,1.442,0,0,0,0,2.088L14.8,52.71a1.442,1.442,0,0,0,2.089,0l6.365-6.365a1.442,1.442,0,0,0,0-2.089Zm4.575,19.393L3.96,39.781l6.365-6.365L22.259,45.351Zm-7.26.3A10.4,10.4,0,0,1,2.667,43.56H1.275A11.837,11.837,0,0,0,13.11,54.5h.7l-3.779-3.779Z" transform="translate(-1.275 -31.875)" fill="#fff"/>
</svg>
