<svg id="cursor_1_" data-name="cursor (1)" xmlns="http://www.w3.org/2000/svg" width="17.25" height="17.25" viewBox="0 0 17.25 17.25">
  <g id="Group_782" data-name="Group 782">
    <path id="Path_8644" data-name="Path 8644" d="M12.34,9.346l4.91-3.177L0,0,6.168,17.25l3.177-4.91,2.5,2.5a2.1,2.1,0,0,0,1.5.62h0a2.117,2.117,0,0,0,1.5-3.614Zm1.5,4.492a.7.7,0,0,1-.5.207h0a.7.7,0,0,1-.5-.207l-3.73-3.73L6.535,14.085,2.333,2.333l11.751,4.2L10.107,9.109l3.73,3.73A.707.707,0,0,1,13.838,13.837Z" fill="#fff"/>
  </g>
</svg>
